<svg width="380" height="360" viewBox="0 0 380 360" fill="none" xmlns="http://www.w3.org/2000/svg">
<path d="M376.412 190.392H372.874V189.788C372.872 188.139 372.215 186.558 371.047 185.392C369.879 184.226 368.296 183.57 366.644 183.568H364.249C362.596 183.568 361.01 184.223 359.84 185.389C358.67 186.555 358.012 188.137 358.01 189.788V190.392H354.481C354.009 190.391 353.542 190.483 353.106 190.662C352.671 190.842 352.275 191.106 351.941 191.438C351.608 191.771 351.343 192.167 351.164 192.602C350.984 193.037 350.892 193.503 350.893 193.974V210.293C350.893 211.243 351.271 212.154 351.944 212.826C352.617 213.497 353.529 213.875 354.481 213.875H376.412C377.363 213.873 378.274 213.494 378.946 212.823C379.619 212.152 379.998 211.242 380 210.293V193.974C380 193.024 379.622 192.113 378.949 191.441C378.276 190.769 377.363 190.392 376.412 190.392ZM359.714 189.788C359.717 188.589 360.195 187.44 361.045 186.593C361.896 185.745 363.048 185.27 364.249 185.27H366.644C367.844 185.27 368.995 185.746 369.844 186.593C370.693 187.44 371.17 188.589 371.17 189.788V190.392H359.714V189.788Z" fill="#263238"/>
<path d="M371.979 200.466H367.462V195.965H363.422V200.466H358.905V204.507H363.422V209.008H367.462V204.507H371.979V200.466Z" fill="white"/>
<path d="M369.422 93.1411C368.72 93.1411 368.024 93.0029 367.375 92.7342C366.726 92.4656 366.137 92.0719 365.641 91.5756C365.144 91.0793 364.751 90.4902 364.483 89.842C364.215 89.1938 364.077 88.4991 364.078 87.7979V73.4017C364.077 72.7004 364.215 72.0058 364.483 71.3576C364.751 70.7094 365.144 70.1203 365.641 69.624C366.137 69.1277 366.726 68.734 367.375 68.4654C368.024 68.1967 368.72 68.0585 369.422 68.0585C370.125 68.0585 370.821 68.1967 371.47 68.4654C372.118 68.734 372.708 69.1277 373.204 69.624C373.701 70.1203 374.094 70.7094 374.362 71.3576C374.63 72.0058 374.768 72.7004 374.767 73.4017V87.7723C374.771 88.4758 374.636 89.1731 374.37 89.8243C374.103 90.4755 373.71 91.0676 373.213 91.5666C372.717 92.0656 372.126 92.4616 371.475 92.7318C370.825 93.002 370.127 93.1411 369.422 93.1411Z" fill="white" stroke="#263238" stroke-linecap="round" stroke-linejoin="round"/>
<path d="M369.422 93.1413C368.72 93.1413 368.024 93.003 367.375 92.7344C366.726 92.4658 366.137 92.072 365.641 91.5758C365.144 91.0795 364.751 90.4904 364.483 89.8422C364.215 89.1939 364.077 88.4993 364.078 87.798V80.6085H374.767V87.798C374.768 88.4993 374.63 89.1939 374.362 89.8422C374.094 90.4904 373.701 91.0795 373.204 91.5758C372.708 92.072 372.118 92.4658 371.47 92.7344C370.821 93.003 370.125 93.1413 369.422 93.1413Z" fill="#263238" stroke="#263238" stroke-linecap="round" stroke-linejoin="round"/>
<path d="M342.54 71.9383C342.1 71.3905 341.774 70.7613 341.579 70.087C341.384 69.4127 341.324 68.7066 341.403 68.0093C341.482 67.3119 341.699 66.637 342.04 66.0235C342.382 65.4099 342.841 64.8697 343.392 64.434L354.617 55.4321C355.729 54.5501 357.146 54.1443 358.557 54.3038C359.968 54.4633 361.258 55.1751 362.144 56.2829C363.027 57.3912 363.433 58.8041 363.273 60.2112C363.113 61.6183 362.4 62.9046 361.291 63.7873L350.057 72.7807C349.509 73.2187 348.879 73.5445 348.204 73.7392C347.529 73.934 346.822 73.994 346.124 73.9158C345.425 73.8375 344.749 73.6226 344.135 73.2833C343.52 72.944 342.978 72.4869 342.54 71.9383Z" fill="white" stroke="#263238" stroke-linecap="round" stroke-linejoin="round"/>
<path d="M342.54 71.9384C342.1 71.3906 341.774 70.7614 341.579 70.0871C341.384 69.4129 341.324 68.7067 341.403 68.0094C341.482 67.312 341.699 66.6371 342.04 66.0236C342.382 65.41 342.841 64.8698 343.392 64.4341L349.009 59.9331L355.7 68.2628L350.083 72.7552C349.535 73.1987 348.905 73.5295 348.228 73.7285C347.552 73.9276 346.842 73.9909 346.141 73.915C345.44 73.8391 344.761 73.6253 344.143 73.2861C343.524 72.9469 342.98 72.4888 342.54 71.9384Z" fill="#263238" stroke="#263238" stroke-linecap="round" stroke-linejoin="round"/>
<path d="M289.09 32.7659C288.424 32.7662 287.774 32.9745 287.232 33.3615L274.813 23.7386C275.422 22.6141 275.708 21.3436 275.638 20.0674C275.569 18.7911 275.148 17.5588 274.421 16.5065L282.007 6.82394C282.649 7.07106 283.353 7.10653 284.017 6.92515C284.681 6.74378 285.269 6.35509 285.695 5.81599C286.121 5.2769 286.364 4.61571 286.386 3.92925C286.409 3.24278 286.211 2.56709 285.821 2.00111C285.431 1.43512 284.87 1.00857 284.22 0.783911C283.57 0.559249 282.865 0.548276 282.208 0.752597C281.551 0.956918 280.977 1.3658 280.57 1.91938C280.162 2.47296 279.943 3.14216 279.944 3.829C279.941 4.49094 280.146 5.13716 280.533 5.67532L273.151 15.1111C272.162 14.2791 270.959 13.7388 269.679 13.551C268.399 13.3631 267.091 13.535 265.903 14.0475C264.716 14.56 263.694 15.3927 262.954 16.4522C262.214 17.5117 261.784 18.7562 261.713 20.0459H253.087C252.993 19.2816 252.627 18.5764 252.056 18.0585C251.486 17.5406 250.748 17.2444 249.976 17.2237C249.205 17.203 248.452 17.4592 247.854 17.9457C247.256 18.4322 246.853 19.1167 246.718 19.8748C246.583 20.633 246.724 21.4144 247.117 22.077C247.51 22.7397 248.128 23.2396 248.859 23.4859C249.59 23.7322 250.385 23.7085 251.1 23.4192C251.815 23.1299 252.402 22.5941 252.755 21.9093H261.875C262.142 23.1464 262.741 24.2875 263.609 25.2098C264.477 26.1321 265.581 26.8007 266.801 27.1437C268.021 27.4867 269.312 27.4912 270.535 27.1565C271.757 26.8219 272.865 26.1609 273.739 25.2445L286.09 34.8335C285.846 35.4731 285.814 36.1737 285.997 36.8329C286.181 37.4922 286.571 38.0755 287.111 38.4978C287.65 38.92 288.31 39.159 288.996 39.1798C289.681 39.2005 290.355 39.0021 290.919 38.6133C291.483 38.2246 291.908 37.6659 292.131 37.019C292.355 36.3721 292.365 35.6708 292.161 35.0177C291.956 34.3645 291.548 33.7936 290.996 33.3885C290.443 32.9834 289.775 32.7652 289.09 32.7659Z" fill="#263238"/>
<path d="M36.8243 93.2433C35.7919 93.241 34.8025 92.8307 34.0725 92.1019C33.3425 91.3732 32.9314 90.3855 32.9291 89.355V57.0232H40.7195V89.355C40.7195 90.3862 40.3091 91.3752 39.5786 92.1044C38.8481 92.8336 37.8574 93.2433 36.8243 93.2433Z" fill="white" stroke="#263238" stroke-linecap="round" stroke-linejoin="round"/>
<path d="M36.8243 93.2433C35.7919 93.2411 34.8025 92.8307 34.0725 92.102C33.3425 91.3732 32.9314 90.3855 32.9291 89.355V69.4709H40.7195V89.355C40.7195 90.3862 40.3091 91.3752 39.5786 92.1044C38.8481 92.8336 37.8574 93.2433 36.8243 93.2433Z" fill="#263238" stroke="#263238" stroke-linecap="round" stroke-linejoin="round"/>
<path d="M41.8361 55.1343H31.8212V57.9676H41.8361V55.1343Z" fill="white" stroke="#263238" stroke-linecap="round" stroke-linejoin="round"/>
<path d="M25.0196 93.2433C23.9872 93.241 22.9977 92.8307 22.2677 92.1019C21.5377 91.3732 21.1266 90.3855 21.1244 89.355V57.0232H28.9147V89.355C28.9147 90.3862 28.5043 91.3752 27.7739 92.1044C27.0434 92.8336 26.0526 93.2433 25.0196 93.2433Z" fill="white" stroke="#263238" stroke-linecap="round" stroke-linejoin="round"/>
<path d="M25.0196 93.2433C23.9872 93.2411 22.9977 92.8307 22.2677 92.102C21.5377 91.3732 21.1266 90.3855 21.1244 89.355V69.4709H28.9147V89.355C28.9147 90.3862 28.5043 91.3752 27.7739 92.1044C27.0434 92.8336 26.0526 93.2433 25.0196 93.2433Z" fill="#263238" stroke="#263238" stroke-linecap="round" stroke-linejoin="round"/>
<path d="M30.0314 55.1343H20.0164V57.9676H30.0314V55.1343Z" fill="white" stroke="#263238" stroke-linecap="round" stroke-linejoin="round"/>
<path d="M137.4 23.2621L140.502 15.8258C140.555 15.706 140.642 15.6047 140.753 15.5349C140.864 15.4652 140.994 15.4302 141.125 15.4344C141.256 15.441 141.382 15.4878 141.486 15.5685C141.589 15.6492 141.666 15.7598 141.704 15.8854L145.463 28.2565L148.327 19.1441C148.366 19.0159 148.445 18.9033 148.552 18.8223C148.659 18.7414 148.789 18.6962 148.923 18.6931C149.056 18.6967 149.185 18.7389 149.294 18.8145C149.403 18.89 149.487 18.9957 149.537 19.1185L151.131 23.696H159.748C161.512 21.8563 162.537 19.434 162.629 16.8894C162.645 14.5125 161.781 12.2134 160.203 10.4335C158.625 8.65374 156.444 7.51874 154.078 7.24652C151.713 6.97431 149.33 7.58408 147.387 8.95872C145.445 10.3334 144.08 12.376 143.554 14.6942C143.012 12.3922 141.642 10.3692 139.704 9.00986C137.765 7.65056 135.394 7.04982 133.041 7.3219C130.688 7.59398 128.517 8.7199 126.942 10.4855C125.366 12.2511 124.495 14.5333 124.495 16.8979C124.59 19.2545 125.476 21.5109 127.01 23.3047L137.4 23.2621Z" fill="#263238"/>
<path d="M150.679 24.9722C150.547 24.9727 150.417 24.9321 150.309 24.8558C150.2 24.7796 150.118 24.6716 150.074 24.5468L148.966 21.3647L146.06 30.6133C146.018 30.7435 145.936 30.8573 145.826 30.9383C145.716 31.0194 145.583 31.0634 145.446 31.0642C145.309 31.0637 145.175 31.0186 145.066 30.9357C144.957 30.8528 144.878 30.7366 144.841 30.6047L140.997 17.9528L138.44 24.1469C138.391 24.2626 138.309 24.3615 138.205 24.4311C138.1 24.5007 137.977 24.538 137.852 24.5383H128.041C130.146 26.8866 132.772 28.9626 134.732 30.894C137.698 33.8209 140.605 36.8499 143.63 39.6747C147.509 35.8544 151.412 32.0171 155.256 28.1969C156.322 27.1333 157.481 26.0783 158.555 24.9722H150.679Z" fill="#263238"/>
<path d="M6.89769 215.146L11.077 216.593L15.5992 203.578L11.4199 202.131L6.89769 215.146Z" fill="white" stroke="#263238" stroke-miterlimit="10"/>
<path d="M4.91627 217.212L11.3665 219.445L12.2184 216.993L5.7682 214.76L4.91627 217.212Z" fill="white" stroke="#263238" stroke-miterlimit="10"/>
<path d="M6.8115 205.48L17.1431 209.058L25.3356 185.481L15.004 181.903L6.8115 205.48Z" fill="white" stroke="#263238" stroke-miterlimit="10"/>
<path d="M11.8349 195.394L19.4608 198.035L23.983 185.021L16.3571 182.38L11.8349 195.394Z" fill="#263238" stroke="#263238" stroke-miterlimit="10"/>
<path d="M10.4861 204.828L14.6654 206.276L19.1876 193.261L15.0083 191.814L10.4861 204.828Z" fill="#263238" stroke="#263238" stroke-miterlimit="10"/>
<path d="M6.08188 205.233L17.8871 209.321L18.9122 206.37L7.10699 202.283L6.08188 205.233Z" fill="white" stroke="#263238" stroke-miterlimit="10"/>
<path d="M17.523 181.412L23.6752 183.542L25.0411 179.611L18.8889 177.481L17.523 181.412Z" fill="white" stroke="#263238" stroke-miterlimit="10"/>
<path d="M14.0162 182.391L25.8214 186.479L26.8465 183.529L15.0413 179.441L14.0162 182.391Z" fill="white" stroke="#263238" stroke-miterlimit="10"/>
<path d="M22.0278 178.012L26.9714 163.769" stroke="#263238" stroke-miterlimit="10"/>
<path d="M296.889 355.029C321.522 355.029 341.491 350.534 341.491 344.989C341.491 339.444 321.522 334.949 296.889 334.949C272.255 334.949 252.286 339.444 252.286 344.989C252.286 350.534 272.255 355.029 296.889 355.029Z" fill="#263238" stroke="#263238" stroke-linecap="round" stroke-linejoin="round"/>
<path d="M262.497 118.054C262.497 118.054 256.463 121.738 256.531 123.354C256.599 124.971 254.281 154.453 254.016 158.137C253.752 161.821 250.241 169.427 249.968 172.882C249.695 176.336 250.564 179.799 251.579 181.39C252.593 182.981 256.318 188.069 256.318 188.069L266.333 172.626C266.578 169.254 266.629 165.871 266.486 162.493C266.333 155.133 262.497 118.054 262.497 118.054Z" fill="white" stroke="#263238" stroke-linecap="round" stroke-linejoin="round"/>
<path d="M301.031 45.0009C301.031 45.0009 290.377 44.3203 284.308 51.697C278.24 59.0738 279.544 70.3559 279.501 73.8188C279.458 77.2817 269.154 87.4321 270.296 91.5672C271.438 95.7023 274.472 96.1702 273.501 99.6246C272.529 103.079 266.188 105.155 267.108 109.537C268.029 113.919 271.37 120.13 271.37 120.13L332.738 120.547C332.738 120.547 334.928 114.097 332.593 109.256C330.258 104.415 326.942 102.815 327.479 100.509C328.016 98.2037 330.982 92.6733 329.84 88.5297C328.698 84.3861 324.726 83.2375 324.308 75.8608C323.891 68.484 322.8 56.2915 316.936 50.3357C311.072 44.3798 301.031 45.0009 301.031 45.0009Z" fill="#263238" stroke="#263238" stroke-linecap="round" stroke-linejoin="round"/>
<path d="M282.16 329.274C280.276 332.899 277.988 336.301 275.342 339.416C271.421 343.798 267.619 346.103 267.747 348.409C267.875 350.715 276.433 351.166 280.958 349.549C285.484 347.933 288.774 344.708 289.686 344.444C290.598 344.18 293.147 344.444 293.207 341.211C293.266 337.978 292.772 328.772 292.772 328.772L282.16 329.274Z" fill="white" stroke="#263238" stroke-linecap="round" stroke-linejoin="round"/>
<path d="M280.942 349.549C285.476 347.933 288.757 344.708 289.669 344.444C290.581 344.18 293.13 344.444 293.19 341.211C293.19 339.509 293.096 336.106 292.977 333.324C292.306 334.579 291.313 335.635 290.1 336.382C288.887 337.129 287.498 337.542 286.073 337.578C286.073 337.578 285.987 335.961 283.516 333.205C281.922 331.401 280.311 332.822 279.373 334.056L278.615 335.196L278.555 335.306C277.571 336.755 276.495 338.139 275.333 339.45C271.412 343.832 267.611 346.137 267.739 348.443C267.867 350.749 276.416 351.166 280.942 349.549Z" fill="white" stroke="#263238" stroke-linecap="round" stroke-linejoin="round"/>
<path d="M313.739 329.257C316.03 332.895 318.686 336.29 321.666 339.39C326.056 343.763 330.104 346.061 330.189 348.367C330.275 350.672 321.802 351.132 317.097 349.524C312.393 347.916 308.762 344.691 307.833 344.461C306.904 344.231 304.364 344.461 303.963 341.245C303.562 338.029 303.06 328.806 303.06 328.806L313.739 329.257Z" fill="white" stroke="#263238" stroke-linecap="round" stroke-linejoin="round"/>
<path d="M317.132 349.524C312.435 347.916 308.796 344.691 307.867 344.461C306.938 344.231 304.398 344.461 303.997 341.245C303.784 339.543 303.546 336.14 303.367 333.349C304.155 334.597 305.238 335.633 306.52 336.365C307.802 337.098 309.245 337.506 310.722 337.552C310.722 337.552 310.637 335.936 312.793 333.171C314.2 331.375 315.964 332.788 317.055 334.021C317.336 334.396 317.626 334.77 317.907 335.162L317.984 335.272C319.13 336.719 320.353 338.102 321.649 339.416C326.039 343.789 330.087 346.086 330.172 348.392C330.258 350.698 321.837 351.132 317.132 349.524Z" fill="white" stroke="#263238" stroke-linecap="round" stroke-linejoin="round"/>
<path d="M263.622 207.664C263.622 207.664 265.046 255.574 266.938 265.019C268.83 274.463 277.277 328.593 277.277 328.593C279.858 329.684 282.639 330.228 285.442 330.193H294.673L295.525 289.88L295.84 231.368L300.469 330.414C300.469 330.414 313.185 330.865 314.558 330.635C315.93 330.405 317.072 330.176 317.072 330.176L325.246 267.512L329.925 225.821L330.181 209.238C330.181 209.238 291.11 207.885 279.757 206.966C268.404 206.047 263.733 205.818 263.733 205.818L263.622 207.664Z" fill="#D0005E" stroke="#263238" stroke-linecap="round" stroke-linejoin="round"/>
<path d="M316.381 292.254C316.279 293.054 316.177 293.794 316.058 294.475" stroke="#263238" stroke-linecap="round" stroke-linejoin="round"/>
<path d="M317.428 234.576C317.428 234.576 318.219 268.711 316.833 287.243" stroke="#263238" stroke-linecap="round" stroke-linejoin="round"/>
<path d="M275.538 231.836C275.538 231.836 276.518 254.417 277.49 259.48" stroke="#263238" stroke-linecap="round" stroke-linejoin="round"/>
<path d="M311.958 217.448V234.686C314.17 235.281 316.433 235.671 318.717 235.852C322.22 236.082 328.757 235.852 328.757 235.852L329.226 229.326L311.958 217.448Z" fill="#263238" stroke="#263238" stroke-linecap="round" stroke-linejoin="round"/>
<path d="M264.347 230.721C264.347 230.721 273.22 233.521 276.953 233.75C280.686 233.98 284.181 234.448 284.181 234.448L283.72 229.794L263.878 227.931L264.347 230.721Z" fill="#263238" stroke="#263238" stroke-linecap="round" stroke-linejoin="round"/>
<path d="M291.28 99.8373L284.317 107.674L265.003 121.738L269.12 206.983C269.12 206.983 284.513 211.118 297.724 212.267C310.935 213.415 327.922 210.395 327.922 210.395L325.425 121.057C325.425 121.057 317.907 109.996 314.055 107.01C310.202 104.023 308.438 101.258 303.332 100.799C298.227 100.339 291.28 99.8373 291.28 99.8373Z" fill="#D0005E" stroke="#263238" stroke-linecap="round" stroke-linejoin="round"/>
<path d="M283.2 104.032L262.497 118.096L265.744 169.921L264.645 175.128L255.943 185.134L259.65 202.712L257.997 227.514C257.997 227.514 266.222 230.279 271.796 230.96C275.946 231.404 280.117 231.634 284.291 231.649L285.007 197.786C285.007 197.786 287.76 141.571 288.084 139.078C288.408 136.585 291.28 99.9394 291.28 99.9394L283.2 104.032Z" fill="white" stroke="#263238" stroke-linecap="round" stroke-linejoin="round"/>
<path d="M283.533 106.151L273.509 131.242L284.325 135.726L274.114 137.58L283.158 172.95" stroke="#263238" stroke-linecap="round" stroke-linejoin="round"/>
<path d="M289.542 93.1582C289.542 93.1582 293.138 117.109 295.968 122.64C298.798 128.17 299.599 130.008 299.599 130.008C299.599 130.008 305.753 111.341 306.989 108.575C308.225 105.81 309.546 95.9064 309.546 95.9064C309.546 95.9064 297.281 99.8288 289.542 93.1582Z" fill="white" stroke="#263238" stroke-linecap="round" stroke-linejoin="round"/>
<path d="M289.542 93.1582C289.542 93.1582 289.865 95.3364 290.394 98.527C292.192 99.8969 296.957 103.283 300.477 103.462C303.162 103.598 306.571 101.862 308.838 100.475C309.248 97.9655 309.529 95.9064 309.529 95.9064C309.529 95.9064 297.281 99.8288 289.542 93.1582Z" fill="#263238" stroke="#263238" stroke-linecap="round" stroke-linejoin="round"/>
<path d="M284.658 76.601C284.658 76.601 282.203 73.1126 280.549 76.601C278.896 80.0894 283.106 85.254 284.283 85.9602C287.624 87.9426 286.737 84.2585 286.737 84.2585L284.658 76.601Z" fill="white" stroke="#263238" stroke-linecap="round" stroke-linejoin="round"/>
<path d="M315.146 78.107C315.146 78.107 317.217 74.4994 319.245 77.9028C321.274 81.3061 317.617 86.6579 316.526 87.4151C313.407 89.5677 313.901 85.8751 313.901 85.8751L315.146 78.107Z" fill="white" stroke="#263238" stroke-linecap="round" stroke-linejoin="round"/>
<path d="M284.078 73.521C284.078 73.521 292.977 71.445 297.46 68.7989C300.206 67.1432 302.601 64.9667 304.509 62.3921C304.509 62.3921 308.361 69.6582 311.753 72.6021C315.146 75.546 315.853 75.7162 315.853 75.7162C315.853 75.7162 314.225 88.4361 312.384 92.8605C310.543 97.2848 304.534 101.59 298.926 100.348C295.738 99.6502 290.215 97.3529 288.613 93.4816C287.01 89.6103 284.078 73.521 284.078 73.521Z" fill="white" stroke="#263238" stroke-linecap="round" stroke-linejoin="round"/>
<path d="M306.784 83.2971C304.023 83.3652 294.775 83.3822 290.002 80.5064C288.089 79.3946 286.297 78.0856 284.658 76.6011C284.828 77.4519 285.033 78.5154 285.254 79.6215L286.294 80.3788L288.902 90.2144L287.683 90.4782C287.94 91.4837 288.251 92.4748 288.612 93.4476C290.215 97.3189 295.738 99.6162 298.926 100.314C304.526 101.548 310.517 97.2679 312.376 92.852C311.937 91.9941 311.808 91.0117 312.009 90.0698C312.546 87.2876 313.211 82.4123 313.211 82.4123L315.112 80.7106C315.214 80.0895 315.299 79.4939 315.384 78.9494C313.083 80.5404 308.77 83.2461 306.784 83.2971Z" fill="#D0005E" stroke="#263238" stroke-linecap="round" stroke-linejoin="round"/>
<path d="M296.633 79.1875C296.633 79.1875 293.658 75.58 289.755 75.9118" stroke="#263238" stroke-linecap="round" stroke-linejoin="round"/>
<path d="M304.296 79.9023C305.245 78.9061 306.424 78.1572 307.73 77.7212C309.036 77.2851 310.429 77.1751 311.788 77.4008" stroke="#263238" stroke-linecap="round" stroke-linejoin="round"/>
<path d="M288.041 74.1068C288.041 74.1068 292.303 72.407 296.079 73.2059" stroke="#263238" stroke-linecap="round" stroke-linejoin="round"/>
<path d="M304.645 74.1328C305.768 73.5608 307.04 73.3469 308.289 73.5202C309.537 73.6936 310.702 74.2457 311.626 75.1017" stroke="#263238" stroke-linecap="round" stroke-linejoin="round"/>
<path d="M293.769 78.0048C293.789 78.1356 293.782 78.2689 293.749 78.397C293.717 78.5252 293.66 78.6457 293.58 78.7516C293.501 78.8575 293.402 78.9468 293.288 79.0143C293.174 79.0818 293.048 79.1262 292.917 79.145C292.65 79.115 292.405 78.9849 292.231 78.7811C292.057 78.5773 291.967 78.315 291.979 78.0474C291.959 77.9165 291.965 77.7828 291.997 77.6542C292.029 77.5256 292.086 77.4047 292.165 77.2985C292.245 77.1923 292.345 77.103 292.459 77.0358C292.573 76.9686 292.7 76.9249 292.832 76.9073C293.098 76.9391 293.342 77.0698 293.515 77.2731C293.689 77.4765 293.78 77.7378 293.769 78.0048Z" fill="#263238"/>
<path d="M309.205 79.111C309.228 79.2422 309.224 79.3767 309.193 79.5062C309.162 79.6358 309.105 79.7577 309.025 79.8644C308.945 79.9711 308.844 80.0605 308.729 80.127C308.613 80.1935 308.485 80.2357 308.353 80.2511C308.087 80.2232 307.842 80.0948 307.667 79.8924C307.493 79.6899 307.403 79.4287 307.415 79.162C307.392 79.0308 307.396 78.8963 307.427 78.7668C307.458 78.6372 307.515 78.5154 307.595 78.4086C307.675 78.3019 307.776 78.2125 307.891 78.146C308.007 78.0795 308.135 78.0373 308.267 78.0219C308.533 78.0498 308.779 78.1781 308.953 78.3806C309.127 78.583 309.217 78.8443 309.205 79.111Z" fill="#263238"/>
<path d="M332.158 113.17C332.158 113.17 337.127 115.467 338.977 119.126C340.827 122.784 355.615 162.425 355.546 165.42C355.478 168.415 350.586 171.869 346 172.337C341.415 172.805 334.732 164.509 333.735 163.131C332.738 161.753 332.559 145.621 332.559 145.621L332.158 113.17Z" fill="white" stroke="#263238" stroke-linecap="round" stroke-linejoin="round"/>
<path d="M308.736 102.586L311.157 181.832L312.009 231.819C316.65 232.958 321.405 233.572 326.184 233.648C330.169 233.732 334.132 233.026 337.843 231.572C337.843 231.572 336.395 200.474 336.139 195.403C335.883 190.332 334.195 180.658 334.195 180.658L332.184 113.17C332.184 113.17 313.458 104.423 308.736 102.586Z" fill="white" stroke="#263238" stroke-linecap="round" stroke-linejoin="round"/>
<path d="M314.055 106.959L322.638 134.909L314.813 137.027L322.425 140.712L312.93 170.823" fill="white"/>
<path d="M314.055 106.959L322.638 134.909L314.813 137.027L322.425 140.712L312.93 170.823" stroke="#263238" stroke-linecap="round" stroke-linejoin="round"/>
<path d="M320.038 132.526L309.393 183.44C309.393 183.44 316.671 185.738 321.99 185.993C327.309 186.248 338.389 186.214 338.389 186.214L349.469 138.755C349.469 138.755 327.658 136.67 320.038 132.526Z" fill="#263238" stroke="#263238" stroke-linecap="round" stroke-linejoin="round"/>
<path d="M323.746 179.978L324.095 164.067L332.542 165.845C332.542 165.845 326.959 178.123 323.746 179.978Z" fill="white" stroke="#263238" stroke-linecap="round" stroke-linejoin="round"/>
<path d="M330.215 158.315C330.215 158.315 327.965 155.099 327.24 154.401C326.516 153.704 322.936 151.645 322.246 151.645C321.555 151.645 317.848 151.415 317.132 151.415C316.416 151.415 315.606 153.032 316.339 153.721C317.072 154.41 319.621 154.64 319.621 154.64L321.368 157.192L313.484 156.503C313.484 156.503 312.171 157.89 312.47 159.055C312.693 159.845 312.978 160.616 313.322 161.361C313.292 163.053 313.38 164.744 313.586 166.424C313.893 167.811 315.291 168.27 317.209 169.419C319.126 170.567 325.544 169.878 325.544 169.878H328.51L330.215 158.315Z" fill="white" stroke="#263238" stroke-linecap="round" stroke-linejoin="round"/>
<path d="M349.435 159.915L328.979 157.167C328.979 157.167 327.385 170.304 325.774 174.677C324.163 179.05 323.746 179.978 323.746 179.978C323.746 179.978 345.182 179.501 350.236 179.042C355.29 178.582 358.129 175.579 357.907 171.435C357.685 167.292 355.154 163.14 355.154 163.14" fill="white"/>
<path d="M349.435 159.915L328.979 157.167C328.979 157.167 327.385 170.304 325.774 174.677C324.163 179.05 323.746 179.978 323.746 179.978C323.746 179.978 345.182 179.501 350.236 179.042C355.29 178.582 358.129 175.579 357.907 171.435C357.685 167.292 355.154 163.14 355.154 163.14" stroke="#263238" stroke-linecap="round" stroke-linejoin="round"/>
<path d="M264.133 174.26C264.133 174.26 268.906 177.246 270.1 178.174C271.293 179.101 271.395 185.083 272.154 186.231C272.912 187.38 272.017 188.078 270.637 188.078C269.256 188.078 267.168 183.704 267.168 183.704L267.082 182.088L257.332 185.321L254.775 180.947C254.775 180.947 257.673 174.26 264.133 174.26Z" fill="white" stroke="#263238" stroke-linecap="round" stroke-linejoin="round"/>
<path d="M193.1 355.028C217.733 355.028 237.703 350.534 237.703 344.989C237.703 339.444 217.733 334.949 193.1 334.949C168.467 334.949 148.497 339.444 148.497 344.989C148.497 350.534 168.467 355.028 193.1 355.028Z" fill="#263238" stroke="#263238" stroke-linecap="round" stroke-linejoin="round"/>
<path d="M227.935 106.406C227.935 106.406 233.782 135.7 234.822 141.12C235.862 146.54 237.771 159.421 239.936 165.071C242.101 170.72 241.393 177.953 240.311 179.986C239.225 181.753 237.978 183.417 236.586 184.955L229.324 175.502C229.324 175.502 225.003 129.183 224.841 122.623C224.679 116.063 227.935 106.406 227.935 106.406Z" fill="white" stroke="#263238" stroke-linecap="round" stroke-linejoin="round"/>
<path d="M231.788 174.345C231.788 174.345 236.39 177.212 237.2 178.429C238.01 179.646 238.589 181.194 237.958 182.513C237.328 183.832 233.893 187.814 233.023 188.588C232.154 189.362 231.421 186.274 231.319 183.619C231.217 180.965 231.788 174.345 231.788 174.345Z" fill="white" stroke="#263238" stroke-linecap="round" stroke-linejoin="round"/>
<path d="M207.036 334.983C207.036 334.983 221.466 341.985 222.378 343.347C223.29 344.708 220 346.52 211.4 346.52C202.8 346.52 202.544 345.389 199.126 344.487C195.708 343.585 188.898 344.257 187.978 342.224C187.057 340.19 188.659 333.188 188.659 333.188L207.036 334.983Z" fill="white" stroke="#263238" stroke-linecap="round" stroke-linejoin="round"/>
<path d="M187.875 338.599C187.875 338.599 199.808 345.831 198.76 348.315C197.711 350.8 189.086 350.8 184.543 350.119C180 349.439 170.343 343.313 169.831 341.083C169.32 338.854 170.598 335.434 177.596 334.762C184.594 334.09 187.875 338.599 187.875 338.599Z" fill="white" stroke="#263238" stroke-linecap="round" stroke-linejoin="round"/>
<path d="M224.099 220.426C224.099 220.426 217.281 272.846 216.096 280.529C214.911 288.212 211.153 300.413 209.124 309.679C207.974 315.128 207.121 320.635 206.567 326.177C206.36 327.753 206.397 329.351 206.678 330.916C206.968 333.179 207.01 334.983 207.01 334.983C203.975 335.743 200.886 336.272 197.771 336.565C193.927 336.795 188.719 336.795 188.719 336.795L187.014 322.11C187.014 322.11 188.284 300.413 189.034 294.092C189.784 287.77 190.586 238.056 190.552 236.694C190.517 235.333 190.219 223.362 190.219 223.362L213.445 220.877C213.445 220.877 216.616 211.841 221.381 212.292C226.145 212.743 224.099 220.426 224.099 220.426Z" fill="white" stroke="#263238" stroke-linecap="round" stroke-linejoin="round"/>
<path d="M221.415 212.292C216.65 211.841 213.479 220.877 213.479 220.877L190.228 223.362C190.228 223.362 190.305 226.544 190.381 229.811C192.862 230.032 195.154 230.16 197.115 230.16C204.564 230.148 212.008 229.73 219.412 228.909L220.409 218.495L221.969 229.105L223.043 228.756C223.707 223.702 224.134 220.409 224.134 220.409C224.134 220.409 226.179 212.743 221.415 212.292Z" fill="#263238" stroke="#263238" stroke-linecap="round" stroke-linejoin="round"/>
<path d="M165.97 222.009C165.97 222.009 165.97 222.332 166.021 222.919C166.337 229.096 168.212 264.891 168.783 271.493C169.422 278.726 166.226 286.63 166.388 293.181C166.55 299.733 168.093 335.213 168.093 335.213L169.797 341.083C169.797 341.083 173.803 338.378 177.647 338.378C181.491 338.378 187.875 338.599 187.875 338.599C187.875 338.599 188.208 333.851 188.174 332.277C188.14 330.703 187.995 325.045 187.995 325.045C187.995 325.045 194.498 295.444 194.89 292.96C195.282 290.476 200.328 247.542 200.294 246.164C200.26 244.786 201.359 225.599 201.359 225.599L165.97 222.009Z" fill="white" stroke="#263238" stroke-linecap="round" stroke-linejoin="round"/>
<path d="M201.121 230.117C201.266 227.497 201.368 225.625 201.368 225.625L165.97 222.009C165.97 222.009 165.97 222.332 166.021 222.919C166.021 223.668 166.115 224.851 166.2 226.323C174.477 227.803 188.838 230.134 197.115 230.134C198.478 230.16 199.808 230.143 201.121 230.117Z" fill="#263238" stroke="#263238" stroke-linecap="round" stroke-linejoin="round"/>
<path d="M192.052 83.2715C192.052 83.2715 188.31 83.9011 186.887 85.5687C185.46 87.1908 184.177 88.933 183.051 90.7759C182.855 91.4055 160.848 104.738 160.848 104.738L162.433 168.313C162.433 168.313 163.089 178.106 161.922 181.441C159.949 187.999 158.992 194.819 159.083 201.665C159.288 209.791 159.816 222.936 159.816 222.936C159.816 222.936 185.003 227.939 197.115 227.939C204.565 227.921 212.008 227.498 219.412 226.671L220.409 216.249L221.926 226.884L227.1 225.182L231.361 193.702C231.361 193.702 234.328 187.031 234.293 185.568C234.259 184.104 235.043 182.232 234.183 180.982C233.322 179.731 231.788 177.229 231.788 177.229C231.788 177.229 227.935 108.286 227.935 106.406C227.935 104.525 216.539 93.49 215.695 93.0731C214.852 92.6562 209.652 84.9391 202.91 82.8631C196.169 80.787 192.052 83.2715 192.052 83.2715Z" fill="white" stroke="#263238" stroke-linecap="round" stroke-linejoin="round"/>
<path d="M185.191 92.8605L182.668 115.757L193.032 120.564L190.441 128.332L216.36 173.801" stroke="#263238" stroke-linecap="round" stroke-linejoin="round"/>
<path d="M214.144 95.4299L221.918 113.544L218.585 117.977L224.142 125.737L221.918 175.647" stroke="#263238" stroke-linecap="round" stroke-linejoin="round"/>
<path d="M191.089 86.4026C191.278 90.8694 192.089 95.288 193.501 99.531C195.742 105.785 210.599 148.931 210.599 148.931L220.204 182.692C220.204 182.692 218.934 148.301 218.9 146.846C218.866 145.391 211.621 97.6507 211.621 97.6507C211.621 97.6507 210.385 89.9421 208.434 87.0237C206.482 84.1054 193.398 78.6855 191.089 86.4026Z" fill="#D0005E" stroke="#263238" stroke-linecap="round" stroke-linejoin="round"/>
<path d="M190.168 83.0673C190.168 83.0673 184.125 83.6884 185.191 92.8604C186.256 102.032 187.662 108.286 187.662 108.286" stroke="#263238" stroke-width="2" stroke-linecap="round" stroke-linejoin="round"/>
<path d="M186.921 120.377C186.921 120.377 189.478 131.003 191.225 133.922C192.972 136.84 198.257 139.759 202.015 139.759" stroke="#263238" stroke-linecap="round" stroke-linejoin="round"/>
<path d="M195.001 117.875C195.001 117.875 197.813 130.17 198.282 132.467C198.751 134.764 197.2 139.129 194.592 143.528" stroke="#263238" stroke-linecap="round" stroke-linejoin="round"/>
<path d="M193.842 144.983C193.573 144.835 193.374 144.588 193.288 144.295C193.202 144.001 193.235 143.686 193.381 143.417L193.68 142.873C193.753 142.742 193.852 142.628 193.97 142.537C194.088 142.445 194.223 142.378 194.368 142.339C194.512 142.3 194.663 142.29 194.811 142.31C194.959 142.331 195.102 142.38 195.231 142.456C195.499 142.603 195.698 142.85 195.786 143.143C195.874 143.435 195.843 143.751 195.7 144.021L195.401 144.557C195.328 144.688 195.229 144.804 195.11 144.896C194.992 144.989 194.856 145.057 194.711 145.096C194.566 145.136 194.414 145.146 194.265 145.127C194.115 145.107 193.972 145.058 193.842 144.983Z" fill="#263238"/>
<path d="M203.413 139.988C203.413 140.138 203.383 140.287 203.324 140.425C203.266 140.563 203.179 140.688 203.071 140.792C202.963 140.896 202.835 140.977 202.694 141.03C202.554 141.084 202.404 141.108 202.254 141.103H201.632C201.325 141.096 201.033 140.969 200.82 140.749C200.606 140.53 200.487 140.235 200.49 139.929C200.488 139.779 200.518 139.631 200.575 139.493C200.633 139.355 200.718 139.23 200.826 139.125C200.934 139.021 201.061 138.94 201.201 138.886C201.341 138.833 201.491 138.808 201.64 138.814H202.263C202.569 138.823 202.861 138.95 203.075 139.169C203.29 139.388 203.411 139.682 203.413 139.988Z" fill="#263238"/>
<path d="M186.938 121.21L185.506 112.149C185.346 111.215 185.549 110.255 186.073 109.464C186.597 108.674 187.403 108.113 188.327 107.895C189.323 107.669 190.367 107.837 191.242 108.363C192.116 108.89 192.751 109.735 193.015 110.719L195.461 119.738" stroke="#263238" stroke-width="2" stroke-linecap="round" stroke-linejoin="round"/>
<path d="M220.63 127.334C222.681 127.129 224.152 125.049 223.915 122.688C223.678 120.326 221.823 118.579 219.772 118.784C217.72 118.989 216.249 121.069 216.486 123.431C216.723 125.792 218.578 127.54 220.63 127.334Z" fill="white" stroke="#263238" stroke-linecap="round" stroke-linejoin="round"/>
<path d="M210.147 86.8876C210.147 86.8876 218.355 98.4165 220.971 121.917" stroke="#263238" stroke-width="2" stroke-linecap="round" stroke-linejoin="round"/>
<path d="M221.189 124.637C222.31 124.533 223.119 123.391 222.998 122.085C222.876 120.78 221.869 119.806 220.749 119.91C219.629 120.014 218.819 121.156 218.941 122.462C219.062 123.767 220.069 124.741 221.189 124.637Z" fill="white" stroke="#263238" stroke-linecap="round" stroke-linejoin="round"/>
<path d="M233.185 176.14C232.682 177.698 232.269 179.283 231.949 180.888C231.949 181.569 231.788 183.602 230.194 183.143C228.6 182.683 229.077 174.558 229.282 173.656C229.486 172.754 233.364 175.672 233.364 175.672" fill="white"/>
<path d="M233.185 176.14C232.682 177.698 232.269 179.283 231.949 180.888C231.949 181.569 231.788 183.602 230.194 183.143C228.6 182.683 229.077 174.558 229.282 173.656C229.486 172.754 233.364 175.672 233.364 175.672" stroke="#263238" stroke-linecap="round" stroke-linejoin="round"/>
<path d="M181.449 168.942C182.866 169.721 184.45 170.15 186.068 170.193C188.574 170.193 193.151 169.342 194.83 169.776C196.509 170.21 200.797 175.604 200.797 175.604C200.797 175.604 202.075 176.855 201.47 177.485C200.865 178.114 199.629 179.186 198.777 178.523C197.924 177.859 193.663 174.354 193.663 174.354L182.915 178.735L178.5 176.438L181.449 168.942Z" fill="white" stroke="#263238" stroke-linecap="round" stroke-linejoin="round"/>
<path d="M164.99 103.283C164.99 103.283 157.907 104.134 156.705 105.989C155.504 107.844 136.096 150.385 136.139 152.266C136.181 154.146 174.945 184.598 174.945 184.598L183.315 168.695L162.373 149.313L171.459 128.264" fill="white"/>
<path d="M164.99 103.283C164.99 103.283 157.907 104.134 156.705 105.989C155.504 107.844 136.096 150.385 136.139 152.266C136.181 154.146 174.945 184.598 174.945 184.598L183.315 168.695L162.373 149.313L171.459 128.264" stroke="#263238" stroke-linecap="round" stroke-linejoin="round"/>
<path d="M178.056 192.281L198.529 192.698L198.427 179.986" stroke="#263238" stroke-linecap="round" stroke-linejoin="round"/>
<path d="M182.94 178.735L177.528 180.752" stroke="#263238" stroke-linecap="round" stroke-linejoin="round"/>
<path d="M189.111 74.0994C189.111 74.0994 191.438 92.2393 192.972 94.9449C194.506 97.6506 205.416 108.49 205.416 108.49C205.416 108.49 208.826 95.9914 209.209 93.0731C209.593 90.1547 209.891 78.4812 209.891 78.4812L189.068 72.6445L189.111 74.0994Z" fill="white" stroke="#263238" stroke-linecap="round" stroke-linejoin="round"/>
<path d="M189.111 74.0994C189.111 74.0994 189.384 76.2265 189.801 79.1279C191.433 80.6449 193.298 81.8915 195.325 82.8205C198.009 84.0032 205.169 84.6668 209.695 84.1393C209.814 81.0848 209.891 78.4812 209.891 78.4812L189.068 72.6445L189.111 74.0994Z" fill="#263238" stroke="#263238" stroke-linecap="round" stroke-linejoin="round"/>
<path d="M183.077 58.2654C183.077 58.2654 180.29 55.3471 178.909 58.6738C177.528 62.0006 180.613 67.012 182.258 67.2247C183.234 67.3518 184.226 67.2794 185.173 67.012C185.173 67.012 186.341 71.8107 187.415 73.2657C189.529 75.9336 192.237 78.0721 195.325 79.5108C199.126 81.2125 211.851 81.8166 213.462 79.5108C215.073 77.205 214.98 64.919 214.954 63.8809C214.928 62.8429 214.749 47.9873 214.749 47.9873C214.749 47.9873 215.892 42.8313 214.34 39.2833C212.789 35.7353 197.217 30.7749 193.305 32.8254C189.392 34.8759 184.884 38.4495 184.577 43.0355C184.27 47.6215 184.457 55.1258 184.457 55.1258L183.077 58.2654Z" fill="white" stroke="#263238" stroke-linecap="round" stroke-linejoin="round"/>
<path d="M206.09 51.7991C206.09 51.7991 208.689 63.7108 208.093 65.1402C207.496 66.5696 205.629 66.5951 203.294 65.3444C200.959 64.0937 202.177 62.426 202.177 62.426" stroke="#263238" stroke-linecap="round" stroke-linejoin="round"/>
<path d="M197.038 65.557C197.038 65.557 198.163 68.6796 200.251 68.8923C202.339 69.105 207.581 69.5134 207.581 69.5134" stroke="#263238" stroke-linecap="round" stroke-linejoin="round"/>
<path d="M189.58 52.216L189.912 57.219C189.912 57.219 191.822 58.2655 196.203 58.2655C200.584 58.2655 202.024 57.219 202.024 57.219L201.905 52.216C201.905 52.216 195.546 48.4639 189.58 52.216Z" stroke="#263238" stroke-linecap="round" stroke-linejoin="round"/>
<path d="M206.107 52.216L207.692 57.4316C207.692 57.4316 208.34 58.2824 212.73 58.2824C217.119 58.2824 218.56 57.2359 218.56 57.2359L218.432 52.233C218.432 52.233 212.065 48.4638 206.107 52.216Z" stroke="#263238" stroke-linecap="round" stroke-linejoin="round"/>
<path d="M201.93 52.216H206.107" stroke="#263238" stroke-linecap="round" stroke-linejoin="round"/>
<path d="M189.606 52.216L181.372 57.0147" stroke="#263238" stroke-linecap="round" stroke-linejoin="round"/>
<path d="M191.634 49.7132C191.634 49.7132 193.867 47.2145 198.93 49.2967" stroke="#263238" stroke-linecap="round" stroke-linejoin="round"/>
<path d="M206.874 49.7133C207.626 49.1118 208.533 48.7344 209.49 48.6246C210.448 48.5149 211.417 48.6772 212.286 49.0929" stroke="#263238" stroke-linecap="round" stroke-linejoin="round"/>
<path d="M196.97 54.5132C196.97 55.4321 196.637 56.2149 196.177 56.2149C195.717 56.2149 195.325 55.4662 195.325 54.5132C195.325 53.5603 195.657 52.8116 196.126 52.8116C196.595 52.8116 196.953 53.5858 196.97 54.5132Z" fill="#263238"/>
<path d="M210.334 54.3005C210.334 55.2195 210.002 56.0022 209.542 56.0022C209.081 56.0022 208.689 55.2535 208.689 54.3005C208.689 53.3476 209.022 52.5989 209.482 52.5989C209.942 52.5989 210.309 53.3816 210.334 54.3005Z" fill="#263238"/>
<path d="M196.032 35.0206C196.032 35.0206 198.043 39.4534 195.546 41.07C194.775 41.5152 193.901 41.7496 193.01 41.7496C192.12 41.7496 191.245 41.5152 190.475 41.07C191.139 41.9855 191.509 43.0802 191.538 44.2101C191.567 45.34 191.253 46.4521 190.637 47.4003C189.412 49.4365 187.985 51.3436 186.375 53.0923C186.375 53.0923 186.827 58.4781 185.889 59.1078C184.952 59.7374 182.395 58.793 182.352 57.2104C182.309 55.6278 181.287 52.4627 181.244 50.8802C181.201 49.2976 180.468 45.1796 180.468 45.1796C180.468 45.1796 174.059 42.3293 177.46 38.8494C180.86 35.3694 188.08 32.5191 188.08 32.5191C188.08 32.5191 188.242 26.1889 192.631 24.2915C197.021 22.3942 206.465 19.5439 206.541 22.709C206.661 24.3379 206.368 25.9708 205.689 27.4567C205.689 27.4567 213.607 27.1418 219.13 32.5617C224.653 37.9815 224.466 43.0099 221.611 43.0099C218.755 43.0099 217.826 43.6396 217.826 43.6396C217.826 43.6396 223.29 46.8047 220.477 48.3872C217.664 49.9698 214.766 48.0724 214.766 48.0724C214.766 48.0724 215.977 45.8602 212.414 42.9674C208.851 40.0746 196.032 35.0206 196.032 35.0206Z" fill="#263238" stroke="#263238" stroke-linecap="round" stroke-linejoin="round"/>
<path d="M87.8792 355.028C112.513 355.028 132.482 350.533 132.482 344.989C132.482 339.444 112.513 334.949 87.8792 334.949C63.2458 334.949 43.2766 339.444 43.2766 344.989C43.2766 350.533 63.2458 355.028 87.8792 355.028Z" fill="#263238" stroke="#263238" stroke-linecap="round" stroke-linejoin="round"/>
<path d="M117.251 137.325V145.459L129.098 150.879C129.098 150.879 130.334 145.459 129.345 135.845L117.251 137.325Z" fill="#999999" stroke="#263238" stroke-linecap="round" stroke-linejoin="round"/>
<path d="M58.4481 332.515C55.7364 334.839 53.1743 337.331 50.7771 339.977C47.3678 343.815 46.703 347.635 49.8736 349.464C53.0443 351.293 58.022 350.817 63.4513 347.431C68.8807 344.044 68.6591 342.683 71.8298 341.56C75.0005 340.437 77.0376 338.156 77.0376 334.549C77.0376 330.941 65.4884 330.482 62.9996 330.295C60.5108 330.108 58.4481 332.515 58.4481 332.515Z" fill="white" stroke="#263238" stroke-linecap="round" stroke-linejoin="round"/>
<path d="M77.012 334.549C77.012 334.549 71.898 336.812 69.4177 338.871C66.9374 340.93 61.9939 348.341 56.2151 348.341C53.2722 348.344 50.3782 347.591 47.811 346.154C47.8148 346.839 48.0067 347.51 48.3659 348.094C48.7251 348.677 49.2378 349.151 49.8481 349.464C53.0188 351.268 57.9964 350.817 63.4258 347.431C68.8552 344.044 68.6336 342.683 71.8043 341.56C74.9749 340.437 77.012 338.165 77.012 334.549Z" stroke="#263238" stroke-linecap="round" stroke-linejoin="round"/>
<path d="M115.887 332.515C118.599 334.839 121.161 337.331 123.558 339.977C126.967 343.815 127.632 347.635 124.462 349.464C121.291 351.293 116.313 350.817 110.884 347.431C105.455 344.044 105.676 342.683 102.505 341.56C99.3347 340.437 97.2977 338.156 97.2977 334.549C97.2977 330.941 108.847 330.482 111.336 330.295C113.824 330.108 115.887 332.515 115.887 332.515Z" fill="white" stroke="#263238" stroke-linecap="round" stroke-linejoin="round"/>
<path d="M97.3231 334.549C97.3231 334.549 102.437 336.812 104.917 338.871C107.398 340.93 112.341 348.341 118.12 348.341C121.063 348.344 123.957 347.591 126.524 346.154C126.52 346.839 126.328 347.51 125.969 348.094C125.61 348.677 125.097 349.151 124.487 349.464C121.316 351.268 116.339 350.817 110.909 347.431C105.48 344.044 105.702 342.683 102.531 341.56C99.3601 340.437 97.3231 338.165 97.3231 334.549Z" stroke="#263238" stroke-linecap="round" stroke-linejoin="round"/>
<path d="M51.8852 204.175C51.8852 204.175 53.2404 255.013 53.9223 262.474C54.6041 269.936 56.6157 286.876 56.6157 287.812C56.6157 288.748 57.7407 326.228 57.7407 326.228L55.7037 329.631L56.3855 334.379L65.4373 336.182C69.9632 337.084 75.8528 338.446 76.7563 337.544C77.6598 336.642 77.8899 334.83 78.3417 332.345C78.7934 329.861 79.6969 325.334 78.7934 321.727C77.8899 318.119 79.927 279.695 80.1571 278.794C80.3873 277.892 85.595 240.778 85.595 240.778C85.595 240.778 89.0044 271.289 91.4761 280.546C93.9479 289.803 93.0615 303.595 93.965 309.015C94.8684 314.435 96.6839 332.745 96.914 334.098C97.1442 335.451 97.5874 337.501 97.5874 337.501C97.5874 337.501 108.906 335.919 110.943 335.008C113.009 334.249 115.129 333.646 117.285 333.205C117.285 333.205 117.958 320.323 117.055 315.124C116.396 311.471 116.017 307.774 115.921 304.063C115.921 302.481 117.055 252.324 117.055 252.324L115.921 203.741C115.921 203.741 85.3649 206.906 73.5942 204.643C61.8234 202.38 52.1153 201.027 52.1153 201.027L51.8852 204.175Z" fill="#D0005E" stroke="#263238" stroke-linecap="round" stroke-linejoin="round"/>
<path d="M73.6112 204.626C61.8405 202.371 52.1153 201.027 52.1153 201.027L51.8852 204.184C51.8852 204.184 51.9619 207.102 52.0898 211.629C57.485 213.135 68.4461 215.781 79.0406 215.781C90.2403 215.781 108.08 212.377 116.109 210.752L115.938 203.733C115.938 203.733 85.382 206.889 73.6112 204.626Z" fill="#263238" stroke="#263238" stroke-linecap="round" stroke-linejoin="round"/>
<path d="M112.929 319.115C113.074 320.672 113.167 321.565 113.167 321.565" stroke="#263238" stroke-linecap="round" stroke-linejoin="round"/>
<path d="M109.46 216.104C109.46 216.104 110.313 259.769 110.313 276.25C110.313 287.651 111.693 304.957 112.546 314.537" stroke="#263238" stroke-linecap="round" stroke-linejoin="round"/>
<path d="M63.6473 213.637L65.71 261.011" stroke="#263238" stroke-linecap="round" stroke-linejoin="round"/>
<path d="M65.2924 264.712V272.54" stroke="#263238" stroke-linecap="round" stroke-linejoin="round"/>
<path d="M76.0233 84.837C74.9089 84.843 73.8119 85.1139 72.8233 85.6273C71.8346 86.1407 70.9827 86.8819 70.3382 87.7894C68.9286 89.6461 67.3601 91.3769 65.6504 92.9625L45.4074 103.811L47.3848 180.947L48.1264 207.323C48.1264 207.323 63.6729 212.496 78.4865 212.496C93.3001 212.496 119.714 206.541 119.714 206.541C119.714 206.541 117.498 103.777 118.239 103.777C118.981 103.777 103.673 90.5036 96.7606 87.0152C89.8481 83.5267 76.0233 84.837 76.0233 84.837Z" fill="#D0005E" stroke="#263238" stroke-linecap="round" stroke-linejoin="round"/>
<path d="M70.2529 94.1622C70.2529 94.1622 78.0944 108.584 81.4015 115.178C84.7085 121.772 90.8794 131.259 90.8794 131.259L101.201 103.658" stroke="#263238" stroke-linecap="round" stroke-linejoin="round"/>
<path d="M76.0488 185.636L75.6482 174.124L52.3539 172.771C52.3539 172.771 52.5841 189.72 53.0358 190.638" stroke="#263238" stroke-linecap="round" stroke-linejoin="round"/>
<path d="M76.3297 193.787L76.2192 190.553" stroke="#263238" stroke-linecap="round" stroke-linejoin="round"/>
<path d="M103.946 191.974L103.264 173.001C103.264 173.001 111.412 173.673 118.205 169.155" stroke="#263238" stroke-linecap="round" stroke-linejoin="round"/>
<path d="M69.0171 127.787C69.7331 130.042 71.915 131.369 73.8839 130.74C75.8528 130.11 76.8501 127.77 76.1256 125.515C75.4011 123.261 73.2276 121.933 71.2587 122.563C69.2898 123.193 68.2926 125.532 69.0171 127.787Z" stroke="#263238" stroke-linecap="round" stroke-linejoin="round"/>
<path d="M69.2471 88.3084C69.2471 88.3084 66.6304 98.3483 72.5797 125.601" stroke="#263238" stroke-width="2" stroke-linecap="round" stroke-linejoin="round"/>
<path d="M74.4124 126.537C74.237 126.89 73.9638 127.185 73.6253 127.388C73.2867 127.59 72.897 127.692 72.5025 127.68C72.1079 127.668 71.7251 127.543 71.3993 127.321C71.0736 127.098 70.8187 126.787 70.6649 126.424C70.5111 126.061 70.4648 125.662 70.5316 125.273C70.5984 124.885 70.7754 124.524 71.0417 124.233C71.3079 123.942 71.6522 123.733 72.0336 123.632C72.415 123.531 72.8176 123.541 73.1936 123.661C73.735 123.883 74.1667 124.31 74.3948 124.849C74.623 125.387 74.6293 125.994 74.4124 126.537Z" stroke="#263238" stroke-linecap="round" stroke-linejoin="round"/>
<path d="M117.251 102.33C117.251 102.33 120.95 105.044 121.197 106.031C121.444 107.018 134.033 137.078 134.033 137.078L115.768 139.767L116.015 122.018" fill="#D0005E"/>
<path d="M117.251 102.33C117.251 102.33 120.95 105.044 121.197 106.031C121.444 107.018 134.033 137.078 134.033 137.078L115.768 139.767L116.015 122.018" stroke="#263238" stroke-linecap="round" stroke-linejoin="round"/>
<path d="M47.8792 102.824C47.8792 102.824 43.6772 103.317 42.6885 106.516C41.6998 109.716 34.5487 142.251 34.5487 142.251L60.7154 139.767L58.2436 115.365" fill="#D0005E"/>
<path d="M47.8792 102.824C47.8792 102.824 43.6772 103.317 42.6885 106.516C41.6998 109.716 34.5487 142.251 34.5487 142.251L60.7154 139.767L58.2436 115.365" stroke="#263238" stroke-linecap="round" stroke-linejoin="round"/>
<path d="M98.4225 86.7769C98.4225 86.7769 104.909 90.4696 105.548 99.6586C106.187 108.848 105.548 111.179 105.548 111.179" stroke="#263238" stroke-width="2" stroke-linecap="round" stroke-linejoin="round"/>
<path d="M108.48 122.946C108.48 122.946 107.9 133.811 106.716 136.951C105.531 140.09 100.843 143.809 97.127 144.404" stroke="#263238" stroke-linecap="round" stroke-linejoin="round"/>
<path d="M100.085 121.772C100.085 121.772 99.5648 134.305 99.5136 136.636C99.4625 138.967 101.815 143.026 105.19 146.914" stroke="#263238" stroke-linecap="round" stroke-linejoin="round"/>
<path d="M106.159 148.279L106.258 148.198C106.722 147.823 106.793 147.143 106.417 146.679L105.939 146.092C105.563 145.628 104.882 145.558 104.418 145.933L104.318 146.014C103.854 146.389 103.783 147.069 104.159 147.533L104.637 148.12C105.013 148.584 105.694 148.655 106.159 148.279Z" fill="#263238"/>
<path d="M95.7926 144.801L95.8164 144.927C95.9277 145.513 96.4941 145.898 97.0815 145.787L97.8268 145.646C98.4142 145.535 98.8001 144.97 98.6888 144.383L98.665 144.258C98.5537 143.672 97.9873 143.286 97.3999 143.397L96.6546 143.538C96.0672 143.649 95.6813 144.215 95.7926 144.801Z" fill="#263238"/>
<path d="M108.608 123.771L108.361 114.642C108.338 113.689 107.96 112.78 107.301 112.091C106.642 111.402 105.75 110.983 104.798 110.915C103.787 110.84 102.787 111.167 102.018 111.826C101.248 112.484 100.77 113.42 100.69 114.429L99.9227 123.686" stroke="#263238" stroke-width="2" stroke-linecap="round" stroke-linejoin="round"/>
<path d="M129.84 144.719L123.95 143.485L103.213 140.039L74.1311 134.509L67.2357 131.471C67.2357 131.471 60.7153 122.963 60.1528 122.112C59.5903 121.261 52.2176 124.231 52.4818 125.362C52.746 126.494 53.6154 137.802 54.1865 138.516C54.7575 139.231 61.1245 139.222 61.1245 139.222C61.1245 139.222 91.5017 153.857 92.7631 154.393C110.296 161.77 118.751 161.702 121.743 162.187C124.734 162.672 126.686 161.463 128.408 159.489C130.129 157.515 129.84 144.719 129.84 144.719Z" fill="#999999" stroke="#263238" stroke-linecap="round" stroke-linejoin="round"/>
<path d="M59.2663 121.993C59.2663 121.993 55.7291 122.138 50.4873 125.669C48.5354 126.987 47.5126 127.932 47.5126 128.502C47.6243 129.18 47.816 129.843 48.0837 130.476C51.4822 128.842 55.0413 127.565 58.7038 126.664" fill="#999999"/>
<path d="M59.2663 121.993C59.2663 121.993 55.7291 122.138 50.4873 125.669C48.5354 126.987 47.5126 127.932 47.5126 128.502C47.6243 129.18 47.816 129.843 48.0837 130.476C51.4822 128.842 55.0413 127.565 58.7038 126.664" stroke="#263238" stroke-linecap="round" stroke-linejoin="round"/>
<path d="M60.6812 131.046C60.6812 131.046 51.0584 133.445 49.4986 133.735C47.9388 134.024 47.6575 132.458 47.6575 131.897C47.6575 131.335 48.0837 130.476 49.7798 129.634C51.476 128.791 60.0079 126.519 60.0079 126.519" fill="#999999"/>
<path d="M60.6812 131.046C60.6812 131.046 51.0584 133.445 49.4986 133.735C47.9388 134.024 47.6575 132.458 47.6575 131.897C47.6575 131.335 48.0837 130.476 49.7798 129.634C51.476 128.791 60.0079 126.519 60.0079 126.519" stroke="#263238" stroke-linecap="round" stroke-linejoin="round"/>
<path d="M61.6784 135.428C61.6784 135.428 50.4873 136.559 49.6349 135.853C49.3742 135.57 49.1763 135.234 49.0544 134.869C48.9325 134.504 48.8892 134.117 48.9275 133.734L58.9851 131.607" fill="#999999"/>
<path d="M61.6784 135.428C61.6784 135.428 50.4873 136.559 49.6349 135.853C49.3742 135.57 49.1763 135.234 49.0544 134.869C48.9325 134.504 48.8892 134.117 48.9275 133.734L58.9851 131.607" stroke="#263238" stroke-linecap="round" stroke-linejoin="round"/>
<path d="M58.5589 135.989L49.9247 136.415C49.9247 136.415 50.3424 137.691 50.7771 137.827C52.8226 138.332 54.9066 138.665 57.0076 138.823C58.3854 138.868 59.7582 139.01 61.1159 139.248" fill="#999999"/>
<path d="M58.5589 135.989L49.9247 136.415C49.9247 136.415 50.3424 137.691 50.7771 137.827C52.8226 138.332 54.9066 138.665 57.0076 138.823C58.3854 138.868 59.7582 139.01 61.1159 139.248" stroke="#263238" stroke-linecap="round" stroke-linejoin="round"/>
<path d="M39.9779 141.758C39.9779 141.758 43.9242 158.775 44.9129 160C45.9016 161.225 54.0499 160 62.1983 157.532C70.3466 155.065 104.909 140.286 104.909 140.286L109.844 141.264C109.844 141.264 107.866 135.104 104.414 134.858C100.962 134.611 60.7152 139.767 60.7152 139.767L39.9779 141.758Z" fill="#999999" stroke="#263238" stroke-linecap="round" stroke-linejoin="round"/>
<path d="M74.5146 73.9889C74.5146 73.9889 74.5146 74.3548 74.5146 74.9759C74.5914 78.2176 74.9067 88.5127 75.7335 90.9971C76.7222 93.9495 90.0527 118.845 91.0755 116.871C92.0983 114.897 98.2351 88.0362 98.2351 88.0362V77.4433C98.2351 77.4433 95.0218 80.149 89.0981 80.149C83.1744 80.149 74.5146 73.9889 74.5146 73.9889Z" fill="#999999" stroke="#263238" stroke-linecap="round" stroke-linejoin="round"/>
<path d="M94.2888 88.5893C95.6711 87.7466 96.9926 86.8084 98.2436 85.7815V77.4433C98.2436 77.4433 95.0303 80.149 89.1066 80.149C83.1829 80.149 74.5146 73.9889 74.5146 73.9889C74.5146 73.9889 74.5146 74.3548 74.5146 74.9759C74.5146 76.116 74.5999 78.1325 74.7022 80.3787C74.9359 80.7527 75.1981 81.1082 75.4863 81.4422C77.191 83.4077 85.3563 88.3425 87.3338 88.836C89.3112 89.3295 92.0642 89.8145 94.2888 88.5893Z" fill="#263238" stroke="#263238" stroke-linecap="round" stroke-linejoin="round"/>
<path d="M104.167 59.6948C104.167 59.6948 108.114 57.4741 108.114 61.6687C108.114 65.8633 104.415 70.7897 104.415 70.7897L104.167 59.6948Z" fill="#999999" stroke="#263238" stroke-linecap="round" stroke-linejoin="round"/>
<path d="M68.8636 59.9416C68.8636 59.9416 63.4257 58.4611 63.4257 63.396C63.4257 68.3308 68.3693 71.5214 68.3693 71.5214H71.7786C71.7786 71.5214 73.756 76.4563 75.4863 78.4217C77.2165 80.3871 85.3563 85.322 87.3337 85.8155C89.3111 86.309 92.0215 86.8025 94.2461 85.5687C97.0411 83.8295 99.6165 81.7613 101.917 79.4087C102.906 78.1835 104.636 69.8028 104.636 69.8028C104.636 69.8028 105.13 54.7685 104.142 49.5954C103.153 44.4223 96.735 36.2883 87.8451 35.3013C78.9553 34.3144 70.5598 41.4614 69.3324 47.128C68.105 52.7945 68.8636 59.9416 68.8636 59.9416Z" fill="#999999" stroke="#263238" stroke-linecap="round" stroke-linejoin="round"/>
<path d="M84.9047 63.8895C84.9047 63.8895 83.2 67.3353 86.1406 68.3223C89.0811 69.3093 92.8058 69.0625 93.5474 67.5821C94.2889 66.1016 93.053 64.3829 93.053 64.3829" stroke="#263238" stroke-linecap="round" stroke-linejoin="round"/>
<path d="M81.947 70.0495C81.947 70.0495 88.1179 75.2226 96.5134 70.2963" stroke="#263238" stroke-linecap="round" stroke-linejoin="round"/>
<path d="M85.399 74.7285C85.399 74.7285 90.5897 77.6861 94.0417 74.2356" stroke="#263238" stroke-linecap="round" stroke-linejoin="round"/>
<path d="M82.4413 60.9286C83.1238 60.9286 83.6772 60.0448 83.6772 58.9546C83.6772 57.8644 83.1238 56.9807 82.4413 56.9807C81.7587 56.9807 81.2054 57.8644 81.2054 58.9546C81.2054 60.0448 81.7587 60.9286 82.4413 60.9286Z" fill="#263238"/>
<path d="M95.7719 58.7078C95.7719 59.7969 95.2179 60.6818 94.536 60.6818C93.8541 60.6818 93.3001 59.8309 93.3001 58.7078C93.3001 57.5847 93.8541 56.7424 94.536 56.7424C95.2179 56.7424 95.7719 57.6188 95.7719 58.7078Z" fill="#263238"/>
<path d="M78.9808 56.2474C78.9808 56.2474 80.2167 54.2756 84.9471 55.015" stroke="#263238" stroke-linecap="round" stroke-linejoin="round"/>
<path d="M92.5585 55.2602C92.5585 55.2602 94.7831 51.8097 98.2436 55.2602" stroke="#263238" stroke-linecap="round" stroke-linejoin="round"/>
<path d="M104.167 49.5784C103.847 48.1149 103.291 46.7128 102.522 45.4263C102.235 46.7904 102.134 48.1873 102.224 49.5784C102.582 51.3822 103.852 53.9006 103.852 55.1599C103.852 56.4191 103.664 61.4646 104.568 60.7499C104.657 60.6554 104.73 60.546 104.781 60.4266C104.837 56.8005 104.632 53.1751 104.167 49.5784Z" fill="#263238" stroke="#263238" stroke-linecap="round" stroke-linejoin="round"/>
<path d="M91.7575 39.3683C93.3425 39.2845 94.9201 39.0941 96.4794 38.7983C93.9612 36.9164 90.9932 35.7255 87.8708 35.3439C78.981 34.3569 70.5855 41.5039 69.3581 47.1705C68.1308 52.8371 68.8638 59.9841 68.8638 59.9841C68.8638 59.9841 70.8241 61.3454 71.5486 59.9075C72.2731 58.4696 71.5486 56.1213 72.2731 53.6028C72.9976 51.0843 74.0715 49.8166 74.2505 47.8341C74.4295 45.8517 73.1681 42.9759 73.8925 41.3508C74.617 39.7257 79.1259 36.6712 82.0153 37.7517C85.124 38.9271 88.435 39.4765 91.7575 39.3683Z" fill="#263238" stroke="#263238" stroke-linecap="round" stroke-linejoin="round"/>
</svg>
