<svg width="381" height="361" viewBox="0 0 381 361" fill="none" xmlns="http://www.w3.org/2000/svg">
<path d="M317.211 54.014C317.211 54.014 318.149 48.856 312.679 40.2128C307.209 31.5696 303.596 26.5311 303.596 26.5311C303.596 26.5311 297.967 37.7035 302.996 46.2471C306.713 52.2963 310.9 58.0053 315.513 63.3143L317.211 54.014Z" fill="#D0005E"/>
<path d="M301.382 84.2153C301.382 84.2153 302.32 79.0572 296.85 70.4141C291.38 61.7709 287.749 56.7324 287.749 56.7324C287.749 56.7324 282.119 67.9048 287.158 76.4384C290.873 82.492 295.06 88.2044 299.675 93.5156L301.382 84.2153Z" fill="#D0005E"/>
<path d="M315.156 62.7269C315.156 62.7269 316.62 57.7481 325.299 52.8291C333.978 47.91 339.373 45.331 339.373 45.331C339.373 45.331 339.373 57.9771 331.135 63.0057C325.163 66.4724 318.93 69.4067 312.501 71.7783L315.156 62.7269Z" fill="#D0005E"/>
<path d="M296.203 98.3351C296.203 98.3351 298.155 93.4958 307.265 89.6223C316.376 85.7488 322.034 83.7373 322.034 83.7373C322.034 83.7373 320.748 96.3137 312.088 100.396C305.81 103.183 299.323 105.404 292.694 107.038L296.203 98.3351Z" fill="#D0005E"/>
<path d="M290.799 140.326C290.799 140.326 291.737 135.158 299.9 129.373C308.063 123.587 313.176 120.331 313.176 120.331C313.176 120.331 314.396 132.918 306.74 138.833C301.153 142.956 295.249 146.574 289.091 149.646L290.799 140.326Z" fill="#D0005E"/>
<path d="M288.819 150.433C288.819 150.433 290.451 145.454 286.192 136.084C281.932 126.714 279.014 121.148 279.014 121.148C279.014 121.148 271.977 131.354 275.777 140.565C278.644 147.114 282.024 153.396 285.882 159.345L288.819 150.433Z" fill="#D0005E"/>
<path d="M276.575 179.081C276.575 179.081 277.513 173.923 285.666 168.128C293.82 162.332 298.952 159.026 298.952 159.026C298.952 159.026 300.172 171.603 292.516 177.528C286.927 181.647 281.023 185.265 274.867 188.342L276.575 179.081Z" fill="#D0005E"/>
<path d="M276.105 207.261C276.105 207.261 275.796 202.013 282.288 194.197C288.781 186.38 292.975 181.929 292.975 181.929C292.975 181.929 297.16 193.768 291.164 201.555C286.742 207.045 281.893 212.132 276.668 216.76L276.105 207.261Z" fill="#D0005E"/>
<path d="M318.065 52.819C316.732 58.1266 315.125 63.3522 313.251 68.4723C307.837 82.6818 299.355 90.8072 294.204 103.583C289.053 116.358 293.623 135.148 288.396 151.847C283.17 168.546 275.139 176.741 274.829 188.571C274.519 200.4 278.263 233.29 278.263 233.29" stroke="#263238" stroke-width="0.5" stroke-linecap="round" stroke-linejoin="round"/>
<path d="M314.462 66.1423L322.906 61.6913" stroke="#263238" stroke-width="0.5" stroke-linecap="round" stroke-linejoin="round"/>
<path d="M316.067 59.3314L314.068 52.8988" stroke="#263238" stroke-width="0.5" stroke-linecap="round" stroke-linejoin="round"/>
<path d="M294.721 103.055C294.721 103.055 301.776 99.4404 308.992 95.8557" stroke="#263238" stroke-width="0.5" stroke-linecap="round" stroke-linejoin="round"/>
<path d="M299.675 93.5157C299.675 93.5157 296.513 81.7956 292.009 73.5308" stroke="#263238" stroke-width="0.5" stroke-linecap="round" stroke-linejoin="round"/>
<path d="M289.691 147.725C294.462 141.59 300.046 136.223 306.271 131.792" stroke="#263238" stroke-width="0.5" stroke-linecap="round" stroke-linejoin="round"/>
<path d="M287.158 154.725C286.148 149.677 284.742 144.727 282.955 139.928C280.403 133.575 280.027 132.739 280.027 132.739" stroke="#263238" stroke-width="0.5" stroke-linecap="round" stroke-linejoin="round"/>
<path d="M274.829 188.571C277.139 184.79 279.721 181.205 282.551 177.846C285.329 174.761 288.342 171.923 291.559 169.362" stroke="#263238" stroke-width="0.5" stroke-linecap="round" stroke-linejoin="round"/>
<path d="M276.668 216.711C277.036 212.719 278.399 208.904 280.618 205.658C284.146 200.928 288.322 194.655 290.001 192.175" stroke="#263238" stroke-width="0.5" stroke-linecap="round" stroke-linejoin="round"/>
<path d="M259.901 113.759C259.901 113.759 259.967 110.404 264.48 105.793C268.993 101.183 271.883 98.594 271.883 98.594C271.883 98.594 273.938 106.341 269.734 110.931C266.655 114.163 263.325 117.114 259.779 119.754L259.901 113.759Z" fill="#D0005E"/>
<path d="M265.878 134.81C265.878 134.81 265.953 131.464 270.457 126.844C274.961 122.223 277.869 119.644 277.869 119.644C277.869 119.644 279.915 127.391 275.721 131.992C272.637 135.219 269.304 138.167 265.756 140.804L265.878 134.81Z" fill="#D0005E"/>
<path d="M260.061 119.465C260.061 119.465 259.798 116.129 255.022 111.848C250.246 107.566 247.206 105.156 247.206 105.156C247.206 105.156 245.611 113.032 250.078 117.334C253.345 120.35 256.845 123.071 260.539 125.469L260.061 119.465Z" fill="#D0005E"/>
<path d="M267.304 144.329C267.304 144.329 266.704 141.043 261.534 137.359C256.364 133.675 253.09 131.573 253.09 131.573C253.09 131.573 252.292 139.54 257.152 143.363C260.7 146.014 264.451 148.345 268.365 150.334L267.304 144.329Z" fill="#D0005E"/>
<path d="M265.297 171.215C265.297 171.215 265.362 167.869 261.046 163.079C256.73 158.29 253.944 155.551 253.944 155.551C253.944 155.551 251.579 163.199 255.576 167.978C258.526 171.344 261.737 174.442 265.175 177.239L265.297 171.215Z" fill="#D0005E"/>
<path d="M265.24 177.786C265.24 177.786 264.855 174.471 268.712 169.243C272.568 164.015 275.073 161.018 275.073 161.018C275.073 161.018 278.141 168.377 274.604 173.555C271.985 177.214 269.082 180.635 265.925 183.781L265.24 177.786Z" fill="#D0005E"/>
<path d="M268.974 205.688C268.974 205.688 269.913 202.491 275.477 199.444C281.041 196.397 284.493 194.754 284.493 194.754C284.493 194.754 284.409 202.8 279.164 205.946C275.347 208.126 271.364 209.961 267.257 211.433L268.974 205.688Z" fill="#D0005E"/>
<path d="M269.2 197.363C269.2 197.363 269.265 194.017 264.94 189.228C260.614 184.438 257.837 181.7 257.837 181.7C257.837 181.7 255.473 189.347 259.479 194.127C262.429 197.493 265.64 200.59 269.078 203.387L269.2 197.363Z" fill="#D0005E"/>
<path d="M265.888 214.948C265.888 214.948 266.751 211.732 263.72 205.936C260.69 200.141 258.644 196.746 258.644 196.746C258.644 196.746 254.525 203.507 257.265 209.212C259.312 213.266 261.675 217.129 264.33 220.763L265.888 214.948Z" fill="#D0005E"/>
<path d="M259.498 112.883C259.649 116.375 259.981 119.855 260.492 123.309C262.05 132.918 266.281 139.241 267.858 147.884C269.434 156.527 264.189 167.59 265.306 178.752C266.422 189.915 270.363 196.148 269.059 203.537C267.754 210.925 261.233 230.85 261.233 230.85" stroke="#263238" stroke-width="0.5" stroke-linecap="round" stroke-linejoin="round"/>
<path d="M260.061 121.686L255.379 117.703" stroke="#263238" stroke-width="0.5" stroke-linecap="round" stroke-linejoin="round"/>
<path d="M259.929 117.225L261.994 113.51" stroke="#263238" stroke-width="0.5" stroke-linecap="round" stroke-linejoin="round"/>
<path d="M267.614 147.476C267.614 147.476 263.701 144.22 259.667 140.953" stroke="#263238" stroke-width="0.5" stroke-linecap="round" stroke-linejoin="round"/>
<path d="M265.756 140.834C267.827 136.803 270.279 133.006 273.075 129.502" stroke="#263238" stroke-width="0.5" stroke-linecap="round" stroke-linejoin="round"/>
<path d="M265.043 175.954C262.861 171.454 260.074 167.314 256.768 163.667" stroke="#263238" stroke-width="0.5" stroke-linecap="round" stroke-linejoin="round"/>
<path d="M265.728 180.694C266.996 177.703 268.496 174.828 270.213 172.101C272.615 168.516 272.953 168.048 272.953 168.048" stroke="#263238" stroke-width="0.5" stroke-linecap="round" stroke-linejoin="round"/>
<path d="M267.801 209.063C269.907 207.196 272.165 205.53 274.548 204.084C276.033 203.341 277.458 202.469 278.807 201.476" stroke="#263238" stroke-width="0.5" stroke-linecap="round" stroke-linejoin="round"/>
<path d="M269.068 203.517C268.117 200.832 266.972 198.228 265.644 195.73C264.308 193.415 262.796 191.22 261.121 189.168" stroke="#263238" stroke-width="0.5" stroke-linecap="round" stroke-linejoin="round"/>
<path d="M264.33 220.763C264.615 218.23 264.256 215.661 263.289 213.325C261.703 209.88 259.911 205.359 259.169 203.596" stroke="#263238" stroke-width="0.5" stroke-linecap="round" stroke-linejoin="round"/>
<path d="M33.2058 183.801C33.2058 183.801 31.7234 179.25 23.6542 175.098C15.5851 170.946 10.5184 168.715 10.5184 168.715C10.5184 168.715 10.9313 180.266 18.5688 184.578C24.1214 187.553 29.8995 190.027 35.8424 191.976L33.2058 183.801Z" fill="#D0005E"/>
<path d="M33.759 215.366C33.759 215.366 32.2766 210.826 24.2074 206.663C16.1383 202.501 11.0716 200.281 11.0716 200.281C11.0716 200.281 11.4844 211.831 19.122 216.153C24.6759 219.122 30.4539 221.593 36.3956 223.541L33.759 215.366Z" fill="#D0005E"/>
<path d="M35.3542 191.677C35.3542 191.677 34.3315 186.987 39.1073 178.912C43.8831 170.836 47.0169 166.116 47.0169 166.116C47.0169 166.116 52.4495 176.134 48.1428 184.1C44.9283 189.749 41.2718 195.102 37.212 200.101L35.3542 191.677Z" fill="#D0005E"/>
<path d="M35.767 229.048C35.767 229.048 35.2134 224.268 40.7399 216.77C46.2663 209.272 49.8692 204.931 49.8692 204.931C49.8692 204.931 54.2885 215.496 49.2125 222.934C45.4543 228.192 41.2896 233.108 36.7616 237.631L35.767 229.048Z" fill="#D0005E"/>
<path d="M49.6535 264.855C49.6535 264.855 48.171 260.315 52.093 251.751C56.015 243.188 58.6609 238.139 58.6609 238.139C58.6609 238.139 65.0693 247.489 61.5789 255.894C58.9455 261.871 55.8446 267.603 52.3088 273.03L49.6535 264.855Z" fill="#D0005E"/>
<path d="M52.4683 273.807C52.4683 273.807 51.6051 269.087 44.1739 263.75C36.7428 258.413 32.0609 255.465 32.0609 255.465C32.0609 255.465 30.9162 266.956 37.9063 272.393C43.0018 276.184 48.3875 279.515 54.007 282.351L52.4683 273.807Z" fill="#D0005E"/>
<path d="M55.1703 302.415C55.1703 302.415 53.6878 297.865 57.6098 289.301C61.5317 280.738 64.1777 275.689 64.1777 275.689C64.1777 275.689 70.5861 285.039 67.0957 293.444C64.4581 299.424 61.3541 305.159 57.8162 310.59L55.1703 302.415Z" fill="#D0005E"/>
<path d="M66.9928 324.899C66.9928 324.899 64.4689 320.916 66.2235 311.566C67.978 302.216 69.3479 296.63 69.3479 296.63C69.3479 296.63 77.7924 303.959 76.3943 313.02C75.2735 319.513 73.6415 325.895 71.5153 332.099L66.9928 324.899Z" fill="#D0005E"/>
<path d="M33.3744 182.437C34.6177 187.277 35.6075 192.187 36.3394 197.144C38.2159 211.005 35.007 221.56 36.4707 234.166C37.9344 246.772 49.6065 259.389 52.7497 275.132C55.8929 290.874 53.05 301.28 57.9008 310.76C62.7517 320.239 79.9408 344.436 79.9408 344.436" stroke="#263238" stroke-width="0.5" stroke-linecap="round" stroke-linejoin="round"/>
<path d="M36.2737 194.714L41.0214 187.087" stroke="#263238" stroke-width="0.5" stroke-linecap="round" stroke-linejoin="round"/>
<path d="M34.6036 188.551L30.2313 184.438" stroke="#263238" stroke-width="0.5" stroke-linecap="round" stroke-linejoin="round"/>
<path d="M36.6394 233.499C36.6394 233.499 40.6459 227.206 44.8024 220.863" stroke="#263238" stroke-width="0.5" stroke-linecap="round" stroke-linejoin="round"/>
<path d="M36.4238 223.541C36.4238 223.541 28.8613 215.785 21.7305 211.483" stroke="#263238" stroke-width="0.5" stroke-linecap="round" stroke-linejoin="round"/>
<path d="M51.9803 271.238C53.0956 264.068 55.188 257.107 58.1917 250.576" stroke="#263238" stroke-width="0.5" stroke-linecap="round" stroke-linejoin="round"/>
<path d="M53.0032 277.999C50.0266 274.507 46.7815 271.283 43.3015 268.36C38.5351 264.577 37.8783 264.099 37.8783 264.099" stroke="#263238" stroke-width="0.5" stroke-linecap="round" stroke-linejoin="round"/>
<path d="M57.8914 310.76C58.0875 306.647 58.5768 302.556 59.3552 298.522C60.22 294.747 61.3749 291.054 62.808 287.479" stroke="#263238" stroke-width="0.5" stroke-linecap="round" stroke-linejoin="round"/>
<path d="M71.5134 332.099C70.0807 328.766 69.5081 325.089 69.8544 321.444C70.6043 315.987 71.1854 308.997 71.4478 306.219" stroke="#263238" stroke-width="0.5" stroke-linecap="round" stroke-linejoin="round"/>
<path d="M13.7457 258.911C13.7457 258.911 12.3477 256.232 13.9334 250.407C15.5191 244.582 16.6732 241.117 16.6732 241.117C16.6732 241.117 21.646 246.245 20.3137 251.911C19.272 255.964 17.913 259.917 16.2509 263.73L13.7457 258.911Z" fill="#D0005E"/>
<path d="M27.5757 272.632C27.5757 272.632 26.1871 269.954 27.7634 264.128C29.3397 258.303 30.5031 254.838 30.5031 254.838C30.5031 254.838 35.476 259.966 34.1436 265.632C33.1077 269.686 31.7518 273.64 30.0903 277.452L27.5757 272.632Z" fill="#D0005E"/>
<path d="M16.3446 263.342C16.3446 263.342 14.6933 260.833 9.06364 259.777C3.43401 258.722 -6.10352e-05 258.293 -6.10352e-05 258.293C-6.10352e-05 258.293 2.14858 265.264 7.50611 266.518C11.3952 267.314 15.3405 267.76 19.3002 267.853L16.3446 263.342Z" fill="#D0005E"/>
<path d="M32.8209 279.513C32.8209 279.513 30.9444 277.203 25.2303 276.785C19.5162 276.366 16.0634 276.327 16.0634 276.327C16.0634 276.327 18.8782 283.038 24.3671 283.665C28.3104 284.013 32.2741 284.013 36.2174 283.665L32.8209 279.513Z" fill="#D0005E"/>
<path d="M42.8604 301.688C42.8604 301.688 41.4624 299.01 35.9829 297.327C30.5034 295.644 27.1068 294.838 27.1068 294.838C27.1068 294.838 28.5518 302.037 33.778 303.859C37.5636 305.086 41.4399 305.972 45.3656 306.508L42.8604 301.688Z" fill="#D0005E"/>
<path d="M45.6564 306.906C45.6564 306.906 43.9206 304.467 44.7181 298.472C45.5156 292.478 46.1912 288.853 46.1912 288.853C46.1912 288.853 51.8208 293.175 51.2391 299C50.7534 303.168 49.9374 307.285 48.7996 311.308L45.6564 306.906Z" fill="#D0005E"/>
<path d="M60.6687 327.13C60.6687 327.13 60.0495 324.143 63.1082 319.034C66.167 313.926 68.203 310.929 68.203 310.929C68.203 310.929 71.6184 317.342 68.8317 322.38C66.7591 325.96 64.4051 329.348 61.7946 332.507L60.6687 327.13Z" fill="#D0005E"/>
<path d="M57.244 320.448C57.244 320.448 55.8553 317.77 50.3664 316.097C44.8775 314.424 41.4998 313.598 41.4998 313.598C41.4998 313.598 42.9353 320.797 48.1709 322.629C51.9559 323.867 55.832 324.767 59.7585 325.318L57.244 320.448Z" fill="#D0005E"/>
<path d="M62.2357 335.962C62.2357 335.962 61.532 332.975 56.6061 329.898C51.6801 326.821 48.6214 325.099 48.6214 325.099C48.6214 325.099 48.293 332.447 52.9186 335.624C56.2877 337.826 59.8248 339.725 63.493 341.3L62.2357 335.962Z" fill="#D0005E"/>
<path d="M13.0704 258.413C14.7016 261.094 16.4681 263.681 18.3622 266.16C23.7479 273.001 29.8091 275.898 34.8101 281.992C39.8111 288.086 40.4398 299.358 46.1257 307.613C51.8116 315.868 57.657 318.895 59.8057 325.377C61.9543 331.86 65.4353 350.769 65.4353 350.769" stroke="#263238" stroke-width="0.5" stroke-linecap="round" stroke-linejoin="round"/>
<path d="M17.3019 265.104L11.8787 264.228" stroke="#263238" stroke-width="0.5" stroke-linecap="round" stroke-linejoin="round"/>
<path d="M15.2657 261.629L15.2938 257.696" stroke="#263238" stroke-width="0.5" stroke-linecap="round" stroke-linejoin="round"/>
<path d="M34.4252 281.803C34.4252 281.803 29.9215 281.136 25.324 280.519" stroke="#263238" stroke-width="0.5" stroke-linecap="round" stroke-linejoin="round"/>
<path d="M30.0904 277.452C29.98 273.262 30.2752 269.071 30.9715 264.945" stroke="#263238" stroke-width="0.5" stroke-linecap="round" stroke-linejoin="round"/>
<path d="M44.7183 305.572C41.0444 303.079 37.0497 301.164 32.8585 299.886" stroke="#263238" stroke-width="0.5" stroke-linecap="round" stroke-linejoin="round"/>
<path d="M47.2982 308.967C47.0058 305.99 46.9494 302.993 47.1295 300.006C47.4763 296.023 47.5419 295.475 47.5419 295.475" stroke="#263238" stroke-width="0.5" stroke-linecap="round" stroke-linejoin="round"/>
<path d="M61.2035 330.366C62.0454 327.86 63.0941 325.438 64.3373 323.127C65.1865 321.811 65.9363 320.426 66.5798 318.985" stroke="#263238" stroke-width="0.5" stroke-linecap="round" stroke-linejoin="round"/>
<path d="M59.8053 325.377C57.893 323.721 55.8635 322.223 53.7346 320.897C51.6752 319.718 49.5289 318.719 47.3169 317.909" stroke="#263238" stroke-width="0.5" stroke-linecap="round" stroke-linejoin="round"/>
<path d="M63.5117 341.3C62.6379 339.158 61.242 337.302 59.4678 335.923C56.728 333.981 53.3596 331.292 51.9616 330.247" stroke="#263238" stroke-width="0.5" stroke-linecap="round" stroke-linejoin="round"/>
<path d="M282.241 199.454H216.178C213.841 199.454 211.946 201.465 211.946 203.945V355.171C211.946 357.651 213.841 359.661 216.178 359.661H282.241C284.578 359.661 286.473 357.651 286.473 355.171V203.945C286.473 201.465 284.578 199.454 282.241 199.454Z" fill="white" stroke="#263238" stroke-width="1.01" stroke-linecap="round" stroke-linejoin="round"/>
<path d="M280.243 220.475H218.185C215.848 220.475 213.954 222.485 213.954 224.965V351.347C213.954 353.827 215.848 355.838 218.185 355.838H280.243C282.58 355.838 284.474 353.827 284.474 351.347V224.965C284.474 222.485 282.58 220.475 280.243 220.475Z" fill="#D0005E"/>
<path opacity="0.5" d="M280.243 220.475H218.185C215.848 220.475 213.954 222.485 213.954 224.965V351.347C213.954 353.827 215.848 355.838 218.185 355.838H280.243C282.58 355.838 284.474 353.827 284.474 351.347V224.965C284.474 222.485 282.58 220.475 280.243 220.475Z" fill="white"/>
<path d="M266.948 164.901H231.49V199.454H266.948V164.901Z" fill="#263238" stroke="#263238" stroke-width="1.01" stroke-linecap="round" stroke-linejoin="round"/>
<path d="M234.446 168.317V195.73" stroke="white" stroke-width="1.01" stroke-linecap="round" stroke-linejoin="round"/>
<path d="M239.925 168.317V195.73" stroke="white" stroke-width="1.01" stroke-linecap="round" stroke-linejoin="round"/>
<path d="M247.75 177.04V195.73" stroke="white" stroke-width="1.01" stroke-linecap="round" stroke-linejoin="round"/>
<path d="M247.75 168.317V172.887" stroke="white" stroke-width="1.01" stroke-linecap="round" stroke-linejoin="round"/>
<path d="M282.222 233.449H216.206V310.77H282.222V233.449Z" fill="white"/>
<path d="M248.773 300.055C262.277 300.055 273.224 288.437 273.224 274.106C273.224 259.775 262.277 248.157 248.773 248.157C235.269 248.157 224.321 259.775 224.321 274.106C224.321 288.437 235.269 300.055 248.773 300.055Z" fill="#263238"/>
<path d="M253.249 256.252H244.298V291.96H253.249V256.252Z" fill="#D0005E"/>
<path d="M265.596 278.856V269.356H231.95V278.856H265.596Z" fill="#D0005E"/>
<path d="M351.993 286.384H248.06C245.599 286.384 243.603 288.501 243.603 291.114V355.27C243.603 357.882 245.599 360 248.06 360H351.993C354.454 360 356.449 357.882 356.449 355.27V291.114C356.449 288.501 354.454 286.384 351.993 286.384Z" fill="white" stroke="#263238" stroke-linecap="round" stroke-linejoin="round"/>
<path d="M254.403 318.347C253.298 318.347 252.239 317.882 251.457 317.053C250.676 316.223 250.237 315.099 250.237 313.926V301.977C250.236 301.396 250.343 300.82 250.552 300.282C250.76 299.745 251.067 299.256 251.454 298.845C251.841 298.433 252.301 298.106 252.807 297.884C253.313 297.661 253.855 297.546 254.403 297.546C255.51 297.546 256.572 298.013 257.355 298.844C258.138 299.675 258.578 300.802 258.578 301.977V313.926C258.578 314.508 258.47 315.083 258.26 315.621C258.05 316.158 257.743 316.645 257.355 317.056C256.967 317.467 256.507 317.792 256 318.014C255.494 318.235 254.951 318.349 254.403 318.347Z" fill="#263238" stroke="#263238" stroke-width="1.01" stroke-linecap="round" stroke-linejoin="round"/>
<path d="M257.227 301.569V308.977" stroke="white" stroke-width="1.01" stroke-linecap="round" stroke-linejoin="round"/>
<path d="M257.227 310.889V314.952" stroke="white" stroke-width="1.01" stroke-linecap="round" stroke-linejoin="round"/>
<path d="M272.634 318.347C271.529 318.347 270.469 317.882 269.688 317.053C268.907 316.223 268.468 315.099 268.468 313.926V301.977C268.466 301.396 268.573 300.82 268.782 300.282C268.991 299.745 269.298 299.256 269.685 298.845C270.071 298.433 270.531 298.106 271.037 297.884C271.543 297.661 272.086 297.546 272.634 297.546C273.181 297.546 273.724 297.661 274.23 297.884C274.736 298.106 275.196 298.433 275.583 298.845C275.97 299.256 276.276 299.745 276.485 300.282C276.694 300.82 276.801 301.396 276.8 301.977V313.926C276.8 315.099 276.361 316.223 275.579 317.053C274.798 317.882 273.738 318.347 272.634 318.347Z" fill="#263238" stroke="#263238" stroke-width="1.01" stroke-linecap="round" stroke-linejoin="round"/>
<path d="M275.467 301.569V308.977" stroke="white" stroke-width="1.01" stroke-linecap="round" stroke-linejoin="round"/>
<path d="M275.467 310.889V314.952" stroke="white" stroke-width="1.01" stroke-linecap="round" stroke-linejoin="round"/>
<path d="M290.902 318.347C289.797 318.347 288.737 317.882 287.956 317.053C287.175 316.223 286.736 315.099 286.736 313.926V301.977C286.735 301.396 286.842 300.82 287.05 300.282C287.259 299.745 287.566 299.256 287.953 298.845C288.34 298.433 288.799 298.106 289.305 297.884C289.812 297.661 290.354 297.546 290.902 297.546C291.45 297.546 291.992 297.661 292.498 297.884C293.004 298.106 293.464 298.433 293.851 298.845C294.238 299.256 294.545 299.745 294.753 300.282C294.962 300.82 295.069 301.396 295.068 301.977V313.926C295.068 315.099 294.629 316.223 293.848 317.053C293.066 317.882 292.007 318.347 290.902 318.347Z" fill="#263238" stroke="#263238" stroke-width="1.01" stroke-linecap="round" stroke-linejoin="round"/>
<path d="M293.716 301.569V308.977" stroke="white" stroke-width="1.01" stroke-linecap="round" stroke-linejoin="round"/>
<path d="M293.716 310.889V314.952" stroke="white" stroke-width="1.01" stroke-linecap="round" stroke-linejoin="round"/>
<path d="M309.151 318.347C308.046 318.347 306.987 317.882 306.205 317.053C305.424 316.223 304.985 315.099 304.985 313.926V301.977C304.984 301.396 305.091 300.82 305.3 300.282C305.508 299.745 305.815 299.256 306.202 298.845C306.589 298.433 307.049 298.106 307.555 297.884C308.061 297.661 308.603 297.546 309.151 297.546C309.699 297.546 310.242 297.661 310.748 297.884C311.254 298.106 311.713 298.433 312.1 298.845C312.487 299.256 312.794 299.745 313.003 300.282C313.211 300.82 313.318 301.396 313.317 301.977V313.926C313.317 315.099 312.878 316.223 312.097 317.053C311.316 317.882 310.256 318.347 309.151 318.347Z" fill="#263238" stroke="#263238" stroke-width="1.01" stroke-linecap="round" stroke-linejoin="round"/>
<path d="M311.966 301.569V308.977" stroke="white" stroke-width="1.01" stroke-linecap="round" stroke-linejoin="round"/>
<path d="M311.966 310.889V314.952" stroke="white" stroke-width="1.01" stroke-linecap="round" stroke-linejoin="round"/>
<path d="M327.401 318.347C326.853 318.349 326.31 318.235 325.803 318.014C325.297 317.792 324.837 317.467 324.449 317.056C324.061 316.645 323.753 316.158 323.543 315.621C323.333 315.083 323.225 314.508 323.225 313.926V301.977C323.225 300.802 323.665 299.675 324.448 298.844C325.231 298.013 326.293 297.546 327.401 297.546C327.948 297.546 328.491 297.661 328.997 297.884C329.503 298.106 329.963 298.433 330.35 298.845C330.737 299.256 331.043 299.745 331.252 300.282C331.461 300.82 331.568 301.396 331.566 301.977V313.926C331.566 315.099 331.128 316.223 330.346 317.053C329.565 317.882 328.505 318.347 327.401 318.347Z" fill="#263238" stroke="#263238" stroke-width="1.01" stroke-linecap="round" stroke-linejoin="round"/>
<path d="M330.215 301.569V308.977" stroke="white" stroke-width="1.01" stroke-linecap="round" stroke-linejoin="round"/>
<path d="M330.215 310.889V314.952" stroke="white" stroke-width="1.01" stroke-linecap="round" stroke-linejoin="round"/>
<path d="M345.641 318.347C344.536 318.347 343.476 317.882 342.695 317.053C341.914 316.223 341.475 315.099 341.475 313.926V301.977C341.474 301.396 341.58 300.82 341.789 300.282C341.998 299.745 342.305 299.256 342.692 298.845C343.079 298.433 343.538 298.106 344.044 297.884C344.55 297.661 345.093 297.546 345.641 297.546C346.189 297.546 346.731 297.661 347.237 297.884C347.743 298.106 348.203 298.433 348.59 298.845C348.977 299.256 349.283 299.745 349.492 300.282C349.701 300.82 349.808 301.396 349.807 301.977V313.926C349.807 315.099 349.368 316.223 348.587 317.053C347.805 317.882 346.746 318.347 345.641 318.347Z" fill="#263238" stroke="#263238" stroke-width="1.01" stroke-linecap="round" stroke-linejoin="round"/>
<path d="M348.455 301.569V308.977" stroke="white" stroke-width="1.01" stroke-linecap="round" stroke-linejoin="round"/>
<path d="M348.455 310.889V314.952" stroke="white" stroke-width="1.01" stroke-linecap="round" stroke-linejoin="round"/>
<path d="M254.403 350.092C253.298 350.092 252.239 349.626 251.457 348.797C250.676 347.968 250.237 346.844 250.237 345.671V333.722C250.237 332.549 250.676 331.425 251.457 330.596C252.239 329.767 253.298 329.301 254.403 329.301C254.951 329.3 255.494 329.413 256 329.635C256.507 329.856 256.967 330.182 257.355 330.592C257.743 331.003 258.05 331.491 258.26 332.028C258.47 332.565 258.578 333.141 258.578 333.722V345.671C258.578 346.253 258.47 346.828 258.26 347.365C258.05 347.902 257.743 348.39 257.355 348.801C256.967 349.212 256.507 349.537 256 349.759C255.494 349.98 254.951 350.094 254.403 350.092Z" fill="#263238" stroke="#263238" stroke-width="1.01" stroke-linecap="round" stroke-linejoin="round"/>
<path d="M257.227 333.364V340.772" stroke="white" stroke-width="1.01" stroke-linecap="round" stroke-linejoin="round"/>
<path d="M257.227 342.684V346.746" stroke="white" stroke-width="1.01" stroke-linecap="round" stroke-linejoin="round"/>
<path d="M272.634 350.092C271.529 350.092 270.469 349.626 269.688 348.797C268.907 347.968 268.468 346.844 268.468 345.671V333.722C268.468 332.549 268.907 331.425 269.688 330.596C270.469 329.767 271.529 329.301 272.634 329.301C273.181 329.3 273.723 329.413 274.229 329.635C274.735 329.856 275.195 330.182 275.582 330.593C275.969 331.004 276.276 331.492 276.485 332.029C276.694 332.566 276.801 333.141 276.8 333.722V345.671C276.801 346.252 276.694 346.828 276.485 347.365C276.276 347.902 275.969 348.389 275.582 348.8C275.195 349.211 274.735 349.537 274.229 349.758C273.723 349.98 273.181 350.094 272.634 350.092Z" fill="#263238" stroke="#263238" stroke-width="1.01" stroke-linecap="round" stroke-linejoin="round"/>
<path d="M275.467 333.364V340.772" stroke="white" stroke-width="1.01" stroke-linecap="round" stroke-linejoin="round"/>
<path d="M275.467 342.684V346.746" stroke="white" stroke-width="1.01" stroke-linecap="round" stroke-linejoin="round"/>
<path d="M290.902 350.092C289.797 350.092 288.737 349.626 287.956 348.797C287.175 347.968 286.736 346.844 286.736 345.671V333.722C286.736 332.549 287.175 331.425 287.956 330.596C288.737 329.767 289.797 329.301 290.902 329.301C292.007 329.301 293.066 329.767 293.848 330.596C294.629 331.425 295.068 332.549 295.068 333.722V345.671C295.068 346.844 294.629 347.968 293.848 348.797C293.066 349.626 292.007 350.092 290.902 350.092Z" fill="#263238" stroke="#263238" stroke-width="1.01" stroke-linecap="round" stroke-linejoin="round"/>
<path d="M293.716 333.364V340.772" stroke="white" stroke-width="1.01" stroke-linecap="round" stroke-linejoin="round"/>
<path d="M293.716 342.684V346.746" stroke="white" stroke-width="1.01" stroke-linecap="round" stroke-linejoin="round"/>
<path d="M309.151 350.092C308.604 350.094 308.061 349.98 307.555 349.758C307.049 349.537 306.59 349.211 306.203 348.8C305.816 348.389 305.509 347.902 305.3 347.365C305.091 346.828 304.984 346.252 304.985 345.671V333.722C304.984 333.141 305.091 332.566 305.3 332.029C305.509 331.492 305.816 331.004 306.203 330.593C306.59 330.182 307.049 329.856 307.555 329.635C308.061 329.413 308.604 329.3 309.151 329.301C310.256 329.301 311.316 329.767 312.097 330.596C312.878 331.425 313.317 332.549 313.317 333.722V345.671C313.317 346.844 312.878 347.968 312.097 348.797C311.316 349.626 310.256 350.092 309.151 350.092Z" fill="#263238" stroke="#263238" stroke-width="1.01" stroke-linecap="round" stroke-linejoin="round"/>
<path d="M311.966 333.364V340.772" stroke="white" stroke-width="1.01" stroke-linecap="round" stroke-linejoin="round"/>
<path d="M311.966 342.684V346.746" stroke="white" stroke-width="1.01" stroke-linecap="round" stroke-linejoin="round"/>
<path d="M327.401 350.092C326.853 350.094 326.31 349.98 325.803 349.759C325.297 349.537 324.837 349.212 324.449 348.801C324.061 348.39 323.753 347.902 323.543 347.365C323.333 346.828 323.225 346.253 323.225 345.671V333.722C323.225 333.141 323.333 332.565 323.543 332.028C323.753 331.491 324.061 331.003 324.449 330.592C324.837 330.182 325.297 329.856 325.803 329.635C326.31 329.413 326.853 329.3 327.401 329.301C328.505 329.301 329.565 329.767 330.346 330.596C331.128 331.425 331.566 332.549 331.566 333.722V345.671C331.566 346.844 331.128 347.968 330.346 348.797C329.565 349.626 328.505 350.092 327.401 350.092Z" fill="#263238" stroke="#263238" stroke-width="1.01" stroke-linecap="round" stroke-linejoin="round"/>
<path d="M330.215 333.364V340.772" stroke="white" stroke-width="1.01" stroke-linecap="round" stroke-linejoin="round"/>
<path d="M330.215 342.684V346.746" stroke="white" stroke-width="1.01" stroke-linecap="round" stroke-linejoin="round"/>
<path d="M345.641 350.092C344.536 350.092 343.476 349.626 342.695 348.797C341.914 347.968 341.475 346.844 341.475 345.671V333.722C341.475 332.549 341.914 331.425 342.695 330.596C343.476 329.767 344.536 329.301 345.641 329.301C346.188 329.3 346.73 329.413 347.236 329.635C347.742 329.856 348.202 330.182 348.589 330.593C348.976 331.004 349.283 331.492 349.492 332.029C349.701 332.566 349.808 333.141 349.807 333.722V345.671C349.808 346.252 349.701 346.828 349.492 347.365C349.283 347.902 348.976 348.389 348.589 348.8C348.202 349.211 347.742 349.537 347.236 349.758C346.73 349.98 346.188 350.094 345.641 350.092Z" fill="#263238" stroke="#263238" stroke-width="1.01" stroke-linecap="round" stroke-linejoin="round"/>
<path d="M348.455 333.364V340.772" stroke="white" stroke-width="1.01" stroke-linecap="round" stroke-linejoin="round"/>
<path d="M348.455 342.684V346.746" stroke="white" stroke-width="1.01" stroke-linecap="round" stroke-linejoin="round"/>
<path d="M263.636 290.207V292.697" stroke="#263238" stroke-width="0.5" stroke-linecap="round" stroke-linejoin="round"/>
<path d="M263.636 297.317V350.441" stroke="#263238" stroke-width="0.5" stroke-linecap="round" stroke-linejoin="round" stroke-dasharray="4.64 4.64"/>
<path d="M263.636 352.751V355.24" stroke="#263238" stroke-width="0.5" stroke-linecap="round" stroke-linejoin="round"/>
<path d="M281.885 290.207V292.697" stroke="#263238" stroke-width="0.5" stroke-linecap="round" stroke-linejoin="round"/>
<path d="M281.885 297.317V350.441" stroke="#263238" stroke-width="0.5" stroke-linecap="round" stroke-linejoin="round" stroke-dasharray="4.64 4.64"/>
<path d="M281.885 352.751V355.24" stroke="#263238" stroke-width="0.5" stroke-linecap="round" stroke-linejoin="round"/>
<path d="M300.134 290.207V292.697" stroke="#263238" stroke-width="0.5" stroke-linecap="round" stroke-linejoin="round"/>
<path d="M300.134 297.317V350.441" stroke="#263238" stroke-width="0.5" stroke-linecap="round" stroke-linejoin="round" stroke-dasharray="4.64 4.64"/>
<path d="M300.134 352.751V355.24" stroke="#263238" stroke-width="0.5" stroke-linecap="round" stroke-linejoin="round"/>
<path d="M318.374 290.207V292.697" stroke="#263238" stroke-width="0.5" stroke-linecap="round" stroke-linejoin="round"/>
<path d="M318.374 297.317V350.441" stroke="#263238" stroke-width="0.5" stroke-linecap="round" stroke-linejoin="round" stroke-dasharray="4.64 4.64"/>
<path d="M318.374 352.751V355.24" stroke="#263238" stroke-width="0.5" stroke-linecap="round" stroke-linejoin="round"/>
<path d="M336.624 290.207V292.697" stroke="#263238" stroke-width="0.5" stroke-linecap="round" stroke-linejoin="round"/>
<path d="M336.624 297.317V350.441" stroke="#263238" stroke-width="0.5" stroke-linecap="round" stroke-linejoin="round" stroke-dasharray="4.64 4.64"/>
<path d="M336.624 352.751V355.24" stroke="#263238" stroke-width="0.5" stroke-linecap="round" stroke-linejoin="round"/>
<path d="M246.512 323.197H353.072" stroke="#263238" stroke-width="0.5" stroke-linecap="round" stroke-linejoin="round" stroke-dasharray="5 5"/>
<path d="M348.39 296.57V280.31H323.61V296.57L317.671 305.204C316.835 306.425 316.386 307.896 316.385 309.406V359.661H355.577V309.386C355.576 307.876 355.127 306.405 354.291 305.184L348.39 296.57Z" fill="#263238" stroke="#263238" stroke-width="1.01" stroke-linecap="round" stroke-linejoin="round"/>
<path d="M348.399 272.851H323.713V275.669H348.399V272.851Z" fill="#263238" stroke="#263238" stroke-width="1.01" stroke-linecap="round" stroke-linejoin="round"/>
<path d="M351.984 266.449H320.007V273.668H351.984V266.449Z" fill="#D0005E" stroke="#263238" stroke-width="1.01" stroke-linecap="round" stroke-linejoin="round"/>
<path d="M350.792 275.53H321.199C320.541 275.53 320.007 276.096 320.007 276.795V280.001C320.007 280.699 320.541 281.266 321.199 281.266H350.792C351.45 281.266 351.984 280.699 351.984 280.001V276.795C351.984 276.096 351.45 275.53 350.792 275.53Z" fill="#263238" stroke="#263238" stroke-width="1.01" stroke-linecap="round" stroke-linejoin="round"/>
<path d="M341.728 312.482H316.395V345.96H341.728V312.482Z" fill="#D0005E" stroke="#263238" stroke-width="1.01" stroke-linecap="round" stroke-linejoin="round"/>
<path d="M192.233 45.1916H67.7151C60.1909 45.1916 54.0914 51.6648 54.0914 59.6499V345.054C54.0914 353.039 60.1909 359.512 67.7151 359.512H192.233C199.757 359.512 205.857 353.039 205.857 345.054V59.6499C205.857 51.6648 199.757 45.1916 192.233 45.1916Z" fill="#263238"/>
<mask id="mask0_1_1356" style="mask-type:luminance" maskUnits="userSpaceOnUse" x="54" y="45" width="152" height="315">
<path d="M192.233 45.1916H67.7151C60.1909 45.1916 54.0914 51.6648 54.0914 59.6499V345.054C54.0914 353.039 60.1909 359.512 67.7151 359.512H192.233C199.757 359.512 205.857 353.039 205.857 345.054V59.6499C205.857 51.6648 199.757 45.1916 192.233 45.1916Z" fill="white"/>
</mask>
<g mask="url(#mask0_1_1356)">
<path opacity="0.2" d="M67.1518 45.1916C63.6829 45.1916 60.356 46.654 57.9032 49.2572C55.4503 51.8604 54.0723 55.391 54.0723 59.0724V345.631C54.0705 347.662 54.4899 349.669 55.3006 351.508C56.1114 353.348 57.2937 354.975 58.7636 356.276L147.308 45.1916H67.1518Z" fill="white"/>
<path d="M135.139 350.421C135.139 349.338 134.837 348.279 134.27 347.378C133.703 346.477 132.897 345.775 131.954 345.361C131.011 344.946 129.973 344.838 128.972 345.049C127.971 345.261 127.052 345.782 126.33 346.548C125.608 347.314 125.117 348.29 124.918 349.352C124.718 350.415 124.821 351.516 125.211 352.517C125.602 353.517 126.263 354.373 127.112 354.974C127.96 355.576 128.958 355.897 129.979 355.897C131.348 355.897 132.66 355.32 133.628 354.293C134.596 353.266 135.139 351.873 135.139 350.421Z" stroke="white" stroke-linecap="round" stroke-linejoin="round"/>
</g>
<path d="M192.233 45.1916H67.7151C60.1909 45.1916 54.0914 51.6648 54.0914 59.6499V345.054C54.0914 353.039 60.1909 359.512 67.7151 359.512H192.233C199.757 359.512 205.857 353.039 205.857 345.054V59.6499C205.857 51.6648 199.757 45.1916 192.233 45.1916Z" stroke="#263238" stroke-linecap="round" stroke-linejoin="round"/>
<path d="M199.12 66.5405H60.8469V340.861H199.12V66.5405Z" fill="#D0005E"/>
<mask id="mask1_1_1356" style="mask-type:luminance" maskUnits="userSpaceOnUse" x="60" y="66" width="140" height="275">
<path d="M199.12 66.5405H60.8469V340.861H199.12V66.5405Z" fill="white"/>
</mask>
<g mask="url(#mask1_1_1356)">
<path d="M173.177 201.904L151.259 180.883L129.979 181.272L108.699 180.883L86.7809 201.904L34.9507 238.129V345.014H127.239H132.719H225.007V238.129L173.177 201.904Z" fill="white" stroke="#263238" stroke-width="1.01" stroke-linecap="round" stroke-linejoin="round"/>
<path d="M128.206 280.977L118.757 295.196C118.757 295.196 130.017 289.779 140.863 285.089C151.709 280.399 165.343 265.602 168.401 260.195C171.46 254.788 175.907 246.842 175.907 246.842L162.284 235.7H176.93C176.93 235.7 176.583 218.772 172.164 205.02" stroke="#263238" stroke-width="1.01" stroke-linecap="round" stroke-linejoin="round"/>
<path d="M123.889 287.19C122.304 286.483 120.699 285.776 119.095 285.089C108.22 280.399 94.6153 265.602 91.5565 260.195C88.4978 254.788 84.0504 246.842 84.0504 246.842L97.6834 235.7H83.1027C83.1027 235.7 83.4499 218.772 87.8691 205.02" stroke="#263238" stroke-width="1.01" stroke-linecap="round" stroke-linejoin="round"/>
<path d="M106.813 182.476C106.813 182.476 102.581 253.783 128.205 280.977C128.205 280.977 155.237 261.281 155.237 183.333L106.813 182.476Z" fill="white"/>
<mask id="mask2_1_1356" style="mask-type:luminance" maskUnits="userSpaceOnUse" x="106" y="182" width="50" height="99">
<path d="M106.813 182.476C106.813 182.476 102.581 253.783 128.205 280.977C128.205 280.977 155.237 261.281 155.237 183.333L106.813 182.476Z" fill="white"/>
</mask>
<g mask="url(#mask2_1_1356)">
<path d="M121.122 101.332H142.918C149.166 101.332 155.159 103.967 159.577 108.656C163.996 113.345 166.478 119.704 166.478 126.336V178.225C166.479 182.633 165.662 186.998 164.074 191.071C162.485 195.144 160.157 198.845 157.22 201.963C154.284 205.081 150.798 207.555 146.961 209.243C143.124 210.931 139.012 211.8 134.858 211.802H129.228C125.075 211.802 120.962 210.933 117.124 209.246C113.287 207.56 109.8 205.087 106.863 201.97C103.926 198.853 101.596 195.153 100.007 191.08C98.4174 187.008 97.5992 182.643 97.5992 178.235V126.336C97.5992 119.704 100.081 113.345 104.5 108.656C108.918 103.967 114.911 101.332 121.159 101.332H121.122Z" fill="#D0005E"/>
<path opacity="0.5" d="M121.122 101.332H142.918C149.166 101.332 155.159 103.967 159.577 108.656C163.996 113.345 166.478 119.704 166.478 126.336V178.225C166.479 182.633 165.662 186.998 164.074 191.071C162.485 195.144 160.157 198.845 157.22 201.963C154.284 205.081 150.798 207.555 146.961 209.243C143.124 210.931 139.012 211.8 134.858 211.802H129.228C125.075 211.802 120.962 210.933 117.124 209.246C113.287 207.56 109.8 205.087 106.863 201.97C103.926 198.853 101.596 195.153 100.007 191.08C98.4174 187.008 97.5992 182.643 97.5992 178.235V126.336C97.5992 119.704 100.081 113.345 104.5 108.656C108.918 103.967 114.911 101.332 121.159 101.332H121.122Z" fill="white"/>
</g>
<path d="M106.813 182.476C106.813 182.476 102.581 253.783 128.205 280.977C128.205 280.977 155.237 261.281 155.237 183.333L106.813 182.476Z" stroke="#263238" stroke-width="1.01" stroke-linecap="round" stroke-linejoin="round"/>
<path d="M117.594 176.402C117.594 176.402 115.248 207.52 129.407 219.389C129.407 219.389 144.344 210.796 144.344 176.781L117.594 176.402Z" stroke="#263238" stroke-width="1.01" stroke-linecap="round" stroke-linejoin="round"/>
<path d="M112.865 229.158L129.407 219.389L147.975 233.011" stroke="#263238" stroke-width="1.01" stroke-linecap="round" stroke-linejoin="round"/>
<path d="M133.854 235.152L137.081 225.304L129.406 219.389L119.32 225.304L124.565 234.266L116.289 260.643C119.273 268.53 123.157 275.58 128.205 280.947C128.205 280.947 135.392 275.709 142.354 259.946L133.854 235.152Z" fill="#D0005E" stroke="#263238" stroke-width="1.01" stroke-linecap="round" stroke-linejoin="round"/>
<path d="M166.917 288.916C174.267 287.644 179.253 280.29 178.055 272.491C176.857 264.691 169.927 259.399 162.578 260.671C155.229 261.942 150.242 269.296 151.44 277.096C152.639 284.896 159.568 290.188 166.917 288.916Z" fill="white" stroke="#263238" stroke-width="1.01" stroke-linecap="round" stroke-linejoin="round"/>
<path d="M173.698 278.698C175.734 273.444 173.37 267.433 168.419 265.273C163.469 263.113 157.805 265.621 155.77 270.875C153.734 276.129 156.097 282.139 161.048 284.3C165.999 286.46 171.662 283.952 173.698 278.698Z" fill="white" stroke="#263238" stroke-width="1.01" stroke-linecap="round" stroke-linejoin="round"/>
<path d="M164.733 276.984C164.185 276.984 163.66 276.753 163.273 276.342C162.886 275.931 162.668 275.374 162.668 274.793V190.721C162.668 190.14 162.886 189.583 163.273 189.172C163.66 188.762 164.185 188.531 164.733 188.531C165.28 188.531 165.805 188.762 166.192 189.172C166.579 189.583 166.797 190.14 166.797 190.721V274.793C166.798 275.081 166.745 275.367 166.642 275.633C166.539 275.899 166.387 276.141 166.195 276.345C166.003 276.549 165.775 276.71 165.524 276.82C165.273 276.929 165.004 276.985 164.733 276.984Z" fill="#263238"/>
<path d="M99.5882 307.474H99.3911C97.5146 307.135 79.5091 288.554 77.8109 283.576C76.1126 278.597 76.5911 270.631 76.6099 270.332C76.6273 270.042 76.7527 269.77 76.9586 269.578C77.1645 269.386 77.4339 269.288 77.7077 269.306C77.9814 269.325 78.237 269.458 78.4182 269.677C78.5995 269.895 78.6915 270.181 78.6741 270.471C78.6741 270.541 78.2519 278.288 79.7531 282.859C81.1324 287.031 97.158 303.69 99.6914 305.313C101.099 304.845 106.259 299.936 108.136 294.907C108.186 294.773 108.26 294.651 108.354 294.547C108.449 294.444 108.562 294.361 108.686 294.304C108.811 294.246 108.945 294.216 109.081 294.213C109.216 294.211 109.351 294.237 109.478 294.29C109.604 294.343 109.719 294.422 109.817 294.522C109.914 294.622 109.992 294.742 110.046 294.874C110.1 295.006 110.129 295.149 110.131 295.293C110.134 295.437 110.109 295.58 110.059 295.714C108.108 301.041 101.962 307.474 99.5882 307.474Z" fill="white" stroke="#263238" stroke-width="1.01" stroke-linecap="round" stroke-linejoin="round"/>
<path d="M83.5909 307.474C81.2076 307.474 75.0713 301.041 73.0822 295.654C72.9814 295.384 72.9861 295.081 73.0952 294.814C73.2043 294.547 73.4089 294.337 73.6639 294.23C73.919 294.123 74.2037 294.128 74.4553 294.244C74.7069 294.36 74.9049 294.577 75.0057 294.848C76.8822 299.876 82.0333 304.805 83.4501 305.253C85.9834 303.63 102.009 286.971 103.388 282.799C104.89 278.228 104.477 270.481 104.467 270.412C104.45 270.121 104.542 269.835 104.723 269.617C104.904 269.398 105.16 269.265 105.434 269.247C105.708 269.228 105.977 269.326 106.183 269.518C106.389 269.711 106.514 269.982 106.532 270.272C106.532 270.611 106.982 278.537 105.331 283.516C103.679 288.495 85.7113 307.115 83.7504 307.414L83.5909 307.474Z" fill="white" stroke="#263238" stroke-width="1.01" stroke-linecap="round" stroke-linejoin="round"/>
<path d="M91.8384 233.161C91.2917 233.158 90.7681 232.926 90.3815 232.516C89.995 232.106 89.7767 231.55 89.7742 230.97V194.296C89.7742 193.715 89.9917 193.158 90.3788 192.747C90.7659 192.336 91.291 192.106 91.8384 192.106C92.3859 192.106 92.9109 192.336 93.298 192.747C93.6851 193.158 93.9026 193.715 93.9026 194.296V230.97C93.9026 231.258 93.8492 231.542 93.7455 231.808C93.6417 232.074 93.4897 232.315 93.298 232.519C93.1063 232.722 92.8788 232.884 92.6283 232.994C92.3779 233.104 92.1095 233.161 91.8384 233.161Z" fill="#263238"/>
<path d="M105.321 274.753C104.774 274.751 104.251 274.519 103.864 274.109C103.478 273.698 103.259 273.143 103.257 272.563V246.175C103.257 242.842 102.009 239.646 99.7888 237.289C97.5682 234.933 94.5564 233.609 91.416 233.609C88.2755 233.609 85.2637 234.933 83.0431 237.289C80.8225 239.646 79.575 242.842 79.575 246.175V272.543C79.575 273.124 79.3575 273.681 78.9704 274.092C78.5833 274.503 78.0582 274.733 77.5108 274.733C76.9633 274.733 76.4383 274.503 76.0512 274.092C75.664 273.681 75.4466 273.124 75.4466 272.543V246.155C75.4466 241.666 77.1271 237.36 80.1184 234.185C83.1097 231.011 87.1668 229.227 91.3972 229.227C95.6276 229.227 99.6847 231.011 102.676 234.185C105.667 237.36 107.348 241.666 107.348 246.155V272.543C107.35 273.12 107.139 273.674 106.76 274.088C106.381 274.501 105.865 274.74 105.321 274.753Z" fill="#263238"/>
<path d="M71.1758 291.575L70.8275 291.862C69.7797 292.726 69.59 294.328 70.4039 295.44L71.9294 297.524C72.7433 298.636 74.2525 298.837 75.3004 297.973L75.6487 297.686C76.6965 296.822 76.8862 295.22 76.0723 294.108L74.5468 292.024C73.7329 290.912 72.2237 290.711 71.1758 291.575Z" fill="white" stroke="#263238" stroke-width="1.01" stroke-linecap="round" stroke-linejoin="round"/>
<path d="M107.169 297.672L107.517 297.959C108.565 298.823 110.074 298.622 110.888 297.51L112.414 295.426C113.228 294.314 113.038 292.712 111.99 291.848L111.642 291.561C110.594 290.697 109.085 290.899 108.271 292.011L106.745 294.095C105.931 295.207 106.121 296.808 107.169 297.672Z" fill="white" stroke="#263238" stroke-width="1.01" stroke-linecap="round" stroke-linejoin="round"/>
<path d="M95.7789 136.393H94.9063C92.2013 136.393 90.0085 138.72 90.0085 141.591V150.921C90.0085 153.792 92.2013 156.119 94.9063 156.119H95.7789C98.4838 156.119 100.677 153.792 100.677 150.921V141.591C100.677 138.72 98.4838 136.393 95.7789 136.393Z" fill="white" stroke="#263238" stroke-width="1.01" stroke-linecap="round" stroke-linejoin="round"/>
<path d="M167.876 136.393H167.003C164.298 136.393 162.105 138.72 162.105 141.591V150.921C162.105 153.792 164.298 156.119 167.003 156.119H167.876C170.581 156.119 172.774 153.792 172.774 150.921V141.591C172.774 138.72 170.581 136.393 167.876 136.393Z" fill="white" stroke="#263238" stroke-width="1.01" stroke-linecap="round" stroke-linejoin="round"/>
<path d="M121.122 86.9735H142.918C149.166 86.9735 155.159 89.6078 159.577 94.2968C163.995 98.9859 166.478 105.346 166.478 111.977V163.866C166.478 172.768 163.145 181.306 157.214 187.601C151.282 193.896 143.237 197.433 134.849 197.433H129.219C125.065 197.433 120.952 196.564 117.115 194.878C113.278 193.191 109.791 190.718 106.854 187.601C103.917 184.484 101.587 180.784 99.9974 176.711C98.4079 172.639 97.5898 168.274 97.5898 163.866V111.977C97.5898 105.351 100.068 98.9956 104.48 94.3074C108.893 89.6192 114.878 86.9814 121.122 86.9735Z" fill="white" stroke="#263238" stroke-width="1.01" stroke-linecap="round" stroke-linejoin="round"/>
<path d="M123.918 130.637H113.052C112.073 130.637 111.279 131.48 111.279 132.519V132.858C111.279 133.897 112.073 134.74 113.052 134.74H123.918C124.897 134.74 125.691 133.897 125.691 132.858V132.519C125.691 131.48 124.897 130.637 123.918 130.637Z" fill="#263238" stroke="#263238" stroke-width="1.01" stroke-linecap="round" stroke-linejoin="round"/>
<path d="M152.394 130.637H141.529C140.55 130.637 139.756 131.48 139.756 132.519V132.858C139.756 133.897 140.55 134.74 141.529 134.74H152.394C153.374 134.74 154.168 133.897 154.168 132.858V132.519C154.168 131.48 153.374 130.637 152.394 130.637Z" fill="#263238" stroke="#263238" stroke-width="1.01" stroke-linecap="round" stroke-linejoin="round"/>
<path d="M122.51 143.144C122.51 145.514 121.488 147.426 120.221 147.426C118.954 147.426 117.941 145.514 117.941 143.144C117.941 140.774 118.964 138.852 120.221 138.852C121.478 138.852 122.51 140.774 122.51 143.144Z" fill="#263238" stroke="#263238" stroke-width="1.01" stroke-linecap="round" stroke-linejoin="round"/>
<path d="M148.2 143.144C148.2 145.514 147.177 147.426 145.911 147.426C144.644 147.426 143.621 145.514 143.621 143.144C143.621 140.774 144.644 138.852 145.911 138.852C147.177 138.852 148.2 140.774 148.2 143.144Z" fill="#263238" stroke="#263238" stroke-width="1.01" stroke-linecap="round" stroke-linejoin="round"/>
<path d="M144.344 86.9735H119.695C113.825 86.9735 108.195 89.4484 104.044 93.8536C99.8936 98.2588 97.5616 104.234 97.5616 110.463V165.658C97.5616 174.085 100.716 182.167 106.331 188.126C111.946 194.085 119.561 197.433 127.502 197.433H136.584C140.517 197.434 144.41 196.613 148.043 195.017C151.677 193.42 154.978 191.08 157.758 188.129C160.539 185.178 162.744 181.675 164.248 177.819C165.752 173.964 166.526 169.831 166.525 165.658V110.463C166.525 107.375 165.951 104.316 164.835 101.463C163.72 98.6096 162.085 96.0178 160.025 93.8359C157.965 91.6541 155.519 89.9248 152.829 88.7473C150.138 87.5698 147.254 86.967 144.344 86.9735ZM161.233 157.881C161.233 157.881 161.233 164.593 154.909 171.314C154.909 171.314 148.228 161.984 145.413 161.237C143.593 160.759 136.819 160.898 132.221 161.058C127.633 160.898 120.85 160.759 119.086 161.237C116.271 161.984 109.59 171.314 109.59 171.314C103.266 164.593 103.266 157.881 103.266 157.881V127.282L106.56 122.681C107.819 120.971 108.541 118.885 108.624 116.716C108.706 114.547 108.145 112.405 107.019 110.593C105.836 108.668 105.321 106.366 105.563 104.082C105.804 101.799 106.787 99.6751 108.342 98.0762L108.408 98.0165C109.915 96.47 111.868 95.5071 113.953 95.2831C116.038 95.0591 118.134 95.587 119.902 96.7818L124.818 100.874C126.962 102.651 129.605 103.616 132.325 103.616C135.045 103.616 137.687 102.651 139.831 100.874L144.729 96.7818C146.506 95.5798 148.613 95.048 150.71 95.272C152.807 95.496 154.772 96.4627 156.288 98.0165L156.344 98.0762C157.902 99.706 158.877 101.86 159.103 104.168C159.329 106.477 158.792 108.798 157.583 110.732C156.496 112.539 155.966 114.66 156.065 116.8C156.164 118.941 156.888 120.996 158.136 122.681L161.542 127.282L161.233 157.881Z" fill="#263238" stroke="#263238" stroke-width="1.01" stroke-linecap="round" stroke-linejoin="round"/>
<path d="M137.297 156.607C137.297 156.607 141.52 156.009 141.52 158.598C141.52 161.187 139.052 163.069 134.135 161.207" fill="white"/>
<path d="M137.297 156.607C137.297 156.607 141.52 156.009 141.52 158.598C141.52 161.187 139.052 163.069 134.135 161.207" stroke="#263238" stroke-width="1.01" stroke-linecap="round" stroke-linejoin="round"/>
<path d="M136.941 135.487V157.135C136.941 158.321 136.498 159.459 135.708 160.3C134.918 161.14 133.846 161.613 132.728 161.615H128.975C126.292 161.815 125.354 161.118 125.034 159.913C124.935 159.512 124.915 159.093 124.977 158.683C125.038 158.273 125.179 157.882 125.391 157.533C125.391 156.418 129.876 156.418 129.876 156.418" fill="white"/>
<path d="M136.941 135.487V157.135C136.941 158.321 136.498 159.459 135.708 160.3C134.918 161.14 133.846 161.613 132.728 161.615H128.975C126.292 161.815 125.354 161.118 125.034 159.913C124.935 159.512 124.915 159.093 124.977 158.683C125.038 158.273 125.179 157.882 125.391 157.533C125.391 156.418 129.876 156.418 129.876 156.418" stroke="#263238" stroke-width="1.01" stroke-linecap="round" stroke-linejoin="round"/>
<path d="M132.521 173.963C128.605 173.986 124.752 172.918 121.347 170.866C121.012 170.628 120.778 170.26 120.694 169.842C120.61 169.423 120.684 168.986 120.899 168.625C121.114 168.263 121.454 168.004 121.846 167.904C122.238 167.804 122.651 167.87 122.998 168.088C125.947 169.798 129.257 170.686 132.618 170.668C135.979 170.651 139.28 169.729 142.214 167.988C142.394 167.876 142.593 167.803 142.8 167.775C143.008 167.747 143.218 167.763 143.419 167.823C143.62 167.883 143.807 167.986 143.97 168.125C144.132 168.264 144.267 168.437 144.365 168.632C144.463 168.828 144.523 169.042 144.541 169.263C144.559 169.484 144.535 169.706 144.47 169.917C144.405 170.127 144.3 170.322 144.162 170.488C144.024 170.655 143.856 170.79 143.668 170.886C140.251 172.879 136.42 173.936 132.521 173.963Z" fill="white" stroke="#263238" stroke-width="1.01" stroke-linecap="round" stroke-linejoin="round"/>
<path d="M143.819 149.617H150.63" stroke="#263238" stroke-width="1.01" stroke-linecap="round" stroke-linejoin="round"/>
<path d="M116.759 149.617H123.571" stroke="#263238" stroke-width="1.01" stroke-linecap="round" stroke-linejoin="round"/>
<path d="M89.774 334.519C96.5001 334.519 101.953 328.732 101.953 321.594C101.953 314.455 96.5001 308.669 89.774 308.669C83.0478 308.669 77.5952 314.455 77.5952 321.594C77.5952 328.732 83.0478 334.519 89.774 334.519Z" stroke="#263238" stroke-width="0.724166" stroke-linecap="round" stroke-linejoin="round"/>
<path d="M89.7552 324.79C89.1033 324.79 88.478 324.515 88.017 324.026C87.556 323.537 87.297 322.873 87.297 322.181V313.916C87.297 313.224 87.556 312.561 88.017 312.072C88.478 311.582 89.1033 311.307 89.7552 311.307C90.4072 311.307 91.0325 311.582 91.4935 312.072C91.9545 312.561 92.2135 313.224 92.2135 313.916V322.181C92.2135 322.873 91.9545 323.537 91.4935 324.026C91.0325 324.515 90.4072 324.79 89.7552 324.79Z" fill="#263238"/>
<path d="M89.7739 326.672C88.6225 326.669 87.5189 326.183 86.7048 325.319C85.8906 324.455 85.4321 323.284 85.4296 322.062V318.178C85.4296 318.051 85.4771 317.93 85.5616 317.84C85.646 317.751 85.7606 317.7 85.88 317.7C85.9395 317.699 85.9987 317.71 86.0539 317.734C86.1091 317.757 86.1593 317.793 86.2013 317.837C86.2434 317.882 86.2765 317.935 86.2987 317.994C86.3209 318.052 86.3317 318.115 86.3304 318.178V322.062C86.3765 322.999 86.7599 323.882 87.4015 324.528C88.0431 325.175 88.8939 325.535 89.7785 325.535C90.6631 325.535 91.514 325.175 92.1556 324.528C92.7972 323.882 93.1806 322.999 93.2267 322.062V318.178C93.2254 318.115 93.2362 318.052 93.2584 317.994C93.2805 317.935 93.3137 317.882 93.3558 317.837C93.3978 317.793 93.448 317.757 93.5032 317.734C93.5584 317.71 93.6176 317.699 93.6771 317.7C93.7965 317.7 93.9111 317.751 93.9955 317.84C94.08 317.93 94.1274 318.051 94.1274 318.178V322.062C94.1249 323.285 93.6652 324.458 92.849 325.322C92.0328 326.187 90.9269 326.672 89.7739 326.672Z" fill="#263238"/>
<path d="M89.7736 331.631C89.715 331.631 89.6569 331.618 89.6029 331.594C89.5488 331.57 89.4998 331.535 89.4588 331.49C89.4178 331.446 89.3855 331.393 89.3639 331.335C89.3423 331.277 89.3319 331.215 89.3331 331.153V326.174C89.3331 326.042 89.3825 325.915 89.4704 325.822C89.5583 325.729 89.6775 325.676 89.8018 325.676C89.9261 325.676 90.0453 325.729 90.1332 325.822C90.221 325.915 90.2704 326.042 90.2704 326.174V331.153C90.2723 331.221 90.2603 331.288 90.2354 331.35C90.2104 331.412 90.173 331.468 90.1258 331.514C90.0786 331.559 90.0226 331.593 89.9618 331.613C89.901 331.634 89.8368 331.64 89.7736 331.631Z" fill="#263238"/>
<path d="M92.7765 331.89H86.781C86.6623 331.887 86.5491 331.836 86.4652 331.747C86.3812 331.658 86.333 331.538 86.3306 331.412C86.3306 331.285 86.378 331.163 86.4625 331.074C86.547 330.984 86.6615 330.934 86.781 330.934H92.7765C92.896 330.934 93.0105 330.984 93.095 331.074C93.1794 331.163 93.2269 331.285 93.2269 331.412C93.2245 331.538 93.1763 331.658 93.0923 331.747C93.0084 331.836 92.8952 331.887 92.7765 331.89Z" fill="#263238"/>
<path d="M170.418 334.519C177.144 334.519 182.597 328.732 182.597 321.594C182.597 314.455 177.144 308.669 170.418 308.669C163.692 308.669 158.239 314.455 158.239 321.594C158.239 328.732 163.692 334.519 170.418 334.519Z" stroke="#263238" stroke-width="0.724166" stroke-linecap="round" stroke-linejoin="round"/>
<path d="M177.934 317.81L174.378 319.99V318.198C174.375 317.79 174.221 317.4 173.949 317.113C173.676 316.826 173.308 316.665 172.924 316.665H164.892C164.701 316.663 164.512 316.702 164.336 316.778C164.16 316.855 163.999 316.968 163.864 317.11C163.729 317.253 163.622 317.422 163.548 317.609C163.475 317.796 163.438 317.996 163.438 318.198V325.069C163.436 325.272 163.473 325.473 163.546 325.661C163.618 325.849 163.725 326.02 163.861 326.163C163.996 326.307 164.157 326.42 164.334 326.497C164.511 326.575 164.701 326.614 164.892 326.612H172.924C173.114 326.612 173.304 326.572 173.48 326.495C173.657 326.417 173.817 326.303 173.952 326.16C174.087 326.017 174.194 325.847 174.267 325.659C174.34 325.472 174.378 325.271 174.378 325.069V323.326L177.934 325.507V317.81Z" fill="#263238"/>
<path d="M130.101 334.519C136.827 334.519 142.28 328.732 142.28 321.594C142.28 314.455 136.827 308.669 130.101 308.669C123.375 308.669 117.922 314.455 117.922 321.594C117.922 328.732 123.375 334.519 130.101 334.519Z" fill="#263238" stroke="#263238" stroke-width="0.724166" stroke-linecap="round" stroke-linejoin="round"/>
<path d="M136.265 318.865H123.936C123.595 318.865 123.258 318.945 122.949 319.098C122.639 319.252 122.366 319.476 122.147 319.754C121.929 320.033 121.771 320.359 121.684 320.71C121.598 321.06 121.585 321.427 121.647 321.783L122.004 323.834C122.029 323.973 122.099 324.098 122.202 324.189C122.304 324.28 122.433 324.33 122.567 324.332H126.32C126.474 324.332 126.622 324.267 126.731 324.151C126.84 324.035 126.901 323.878 126.901 323.715V321.494H133.375V323.715C133.375 323.878 133.437 324.035 133.546 324.151C133.655 324.267 133.803 324.332 133.957 324.332H137.71C137.845 324.332 137.976 324.283 138.081 324.192C138.185 324.101 138.256 323.975 138.283 323.834L138.639 321.783C138.703 321.419 138.688 321.045 138.597 320.687C138.506 320.33 138.34 319.999 138.112 319.719C137.884 319.439 137.6 319.217 137.28 319.069C136.961 318.921 136.614 318.852 136.265 318.865Z" fill="#D0005E"/>
<path d="M193.678 69.3884H182.213V76.06H193.678V69.3884Z" stroke="#263238" stroke-width="0.821067" stroke-linecap="round" stroke-linejoin="round"/>
<path d="M191.154 69.3884H182.213V76.06H191.154V69.3884Z" fill="#263238" stroke="#263238" stroke-width="0.725073" stroke-linecap="round" stroke-linejoin="round"/>
<path d="M195.262 71.2505H193.65V74.188H195.262V71.2505Z" fill="#263238" stroke="#263238" stroke-width="0.725073" stroke-linecap="round" stroke-linejoin="round"/>
<path d="M65.3234 71.4497H63.221V75.2734H65.3234V71.4497Z" fill="#263238" stroke="#263238" stroke-width="0.883086" stroke-linecap="round" stroke-linejoin="round"/>
<path d="M68.6261 70.1154H66.5237V75.2834H68.6261V70.1154Z" fill="#263238" stroke="#263238" stroke-width="0.883086" stroke-linecap="round" stroke-linejoin="round"/>
<path d="M71.9288 68.5221H69.8265V75.2734H71.9288V68.5221Z" fill="#263238" stroke="#263238" stroke-width="0.883086" stroke-linecap="round" stroke-linejoin="round"/>
</g>
<path d="M199.12 66.5405H60.8469V340.861H199.12V66.5405Z" stroke="#263238" stroke-linecap="round" stroke-linejoin="round"/>
<path d="M28.9834 359.512H380" stroke="#263238" stroke-width="1.01" stroke-linecap="round" stroke-linejoin="round"/>
<path d="M9.74863 359.512H19.0281" stroke="#263238" stroke-width="1.01" stroke-linecap="round" stroke-linejoin="round"/>
</svg>
