<svg width="300" height="304" viewBox="0 0 300 304" fill="none" xmlns="http://www.w3.org/2000/svg">
<path d="M62.386 195.263L56.6556 196.301L55.53 190.09L48.7219 191.325L49.8475 197.536L44.124 198.573L45.3996 205.623L51.1231 204.586L52.2487 210.797L59.0569 209.568L57.9313 203.351L63.6616 202.313L62.386 195.263Z" stroke="#D0005E" stroke-linecap="round" stroke-linejoin="round"/>
<path d="M119.594 100.125L114.102 98.187L116.203 92.2357L109.682 89.929L107.581 95.8802L102.089 93.942L99.7082 100.699L105.193 102.637L103.092 108.595L109.613 110.895L111.721 104.944L117.206 106.882L119.594 100.125Z" stroke="#D0005E" stroke-linecap="round" stroke-linejoin="round"/>
<path d="M258.104 171.254L252.96 173.977L250.006 168.394L243.887 171.629L246.841 177.212L241.697 179.935L245.047 186.268L250.191 183.545L253.144 189.121L259.264 185.886L256.31 180.303L261.453 177.58L258.104 171.254Z" stroke="#D0005E" stroke-linecap="round" stroke-linejoin="round"/>
<path d="M38.4551 180.467C40.7609 180.467 42.63 178.597 42.63 176.29C42.63 173.984 40.7609 172.114 38.4551 172.114C36.1493 172.114 34.2802 173.984 34.2802 176.29C34.2802 178.597 36.1493 180.467 38.4551 180.467Z" stroke="#D0005E" stroke-linecap="round" stroke-linejoin="round"/>
<path d="M103.487 120.45C103.487 120.668 103.423 120.882 103.301 121.064C103.18 121.246 103.007 121.387 102.805 121.471C102.603 121.555 102.381 121.577 102.167 121.534C101.952 121.491 101.755 121.386 101.601 121.231C101.446 121.077 101.341 120.88 101.298 120.665C101.256 120.451 101.278 120.229 101.361 120.027C101.445 119.824 101.587 119.652 101.768 119.53C101.95 119.409 102.164 119.344 102.382 119.344C102.675 119.344 102.956 119.46 103.164 119.668C103.371 119.875 103.487 120.156 103.487 120.45Z" stroke="#D0005E" stroke-linecap="round" stroke-linejoin="round"/>
<path d="M52.9173 101.483C52.9173 102.255 52.6884 103.01 52.2596 103.652C51.8309 104.294 51.2214 104.795 50.5084 105.09C49.7954 105.385 49.0108 105.463 48.2539 105.312C47.497 105.162 46.8017 104.79 46.256 104.244C45.7103 103.698 45.3386 103.002 45.1881 102.245C45.0375 101.488 45.1148 100.703 45.4101 99.9895C45.7055 99.2761 46.2056 98.6665 46.8473 98.2375C47.489 97.8085 48.2434 97.5796 49.0152 97.5796C50.0495 97.5814 51.041 97.9933 51.7724 98.725C52.5038 99.4567 52.9154 100.449 52.9173 101.483Z" stroke="#D0005E" stroke-linecap="round" stroke-linejoin="round"/>
<path d="M224.848 154.362C224.848 154.799 224.718 155.227 224.475 155.591C224.232 155.954 223.887 156.238 223.483 156.405C223.079 156.572 222.635 156.616 222.206 156.531C221.777 156.446 221.383 156.235 221.074 155.926C220.765 155.616 220.555 155.222 220.469 154.794C220.384 154.365 220.428 153.92 220.595 153.516C220.763 153.112 221.046 152.767 221.409 152.524C221.773 152.281 222.2 152.151 222.637 152.151C223.223 152.151 223.786 152.384 224.2 152.799C224.615 153.213 224.848 153.776 224.848 154.362Z" stroke="#D0005E" stroke-linecap="round" stroke-linejoin="round"/>
<path d="M202.506 86.967C205.237 86.967 207.452 84.7517 207.452 82.019C207.452 79.2863 205.237 77.071 202.506 77.071C199.774 77.071 197.56 79.2863 197.56 82.019C197.56 84.7517 199.774 86.967 202.506 86.967Z" stroke="#D0005E" stroke-linecap="round" stroke-linejoin="round"/>
<path d="M172.053 126.496C172.313 126.885 180.137 128.448 184.196 134.352C186.558 137.743 188.539 141.385 190.104 145.21C190.104 145.21 196.892 149.25 200.371 152.581C203.85 155.911 207.997 160.334 211.197 162.654C214.396 164.975 220.979 169.377 222.637 174.53C222.637 174.53 212.766 201.576 209.976 207.555C207.186 213.533 200.302 226.221 200.302 226.221L188.023 278.41H116.797L114.368 260.509C114.368 260.509 92.5383 256.223 83.4176 248.224C83.4176 248.224 82.558 228.432 86.3714 210.776C90.1848 193.12 103.153 156.41 111.94 145.196C111.94 145.196 125.972 138.481 138.354 136.324C138.354 136.324 146.39 129.97 151.649 129.295C156.909 128.619 172.053 126.496 172.053 126.496Z" fill="white"/>
<path d="M115.33 268.576C121.654 269.784 127.166 270.828 133.606 270.753C140.046 270.678 146.622 269.231 151.888 265.539C152.906 264.691 154.059 264.022 155.299 263.559C158.096 262.775 160.866 264.624 163.642 265.484C167.162 266.576 171.023 266.057 174.475 264.747C177.927 263.437 181.031 261.396 184.108 259.362C183.653 265.641 183.505 271.931 183.664 278.233L188.051 278.41L199.286 228.951C199.286 228.951 180.069 251.281 170.703 257.949L152.734 253.322C152.734 253.322 151.042 254.728 147.481 255.438C147.481 255.438 145.851 261.71 136.682 261.723C127.514 261.737 114.368 260.509 114.368 260.509L115.33 268.576Z" fill="#D0005E"/>
<path opacity="0.5" d="M115.33 268.576C121.654 269.784 127.166 270.828 133.606 270.753C140.046 270.678 146.622 269.231 151.888 265.539C152.906 264.691 154.059 264.022 155.299 263.559C158.096 262.775 160.866 264.624 163.642 265.484C167.162 266.576 171.023 266.057 174.475 264.747C177.927 263.437 181.031 261.396 184.108 259.362C183.653 265.641 183.505 271.931 183.664 278.233L188.051 278.41L199.286 228.951C199.286 228.951 180.069 251.281 170.703 257.949L152.734 253.322C152.734 253.322 151.042 254.728 147.481 255.438C147.481 255.438 145.851 261.71 136.682 261.723C127.514 261.737 114.368 260.509 114.368 260.509L115.33 268.576Z" fill="white"/>
<path d="M96.9181 176.29C96.9181 176.29 88.575 216.809 88.998 230.725C88.998 230.725 100.336 227.545 108.249 230.725C108.249 230.725 94.7829 229.224 88.9844 235.4C83.1858 241.577 101.032 257.806 136.737 254.51C136.737 254.51 143.859 256.741 147.475 255.431C147.475 255.431 146.506 261.887 136.676 261.717C126.886 261.328 98.2484 261.089 83.4109 248.231C83.4178 248.238 81.5486 210.988 96.9181 176.29Z" fill="#D0005E"/>
<path opacity="0.6" d="M96.9181 176.29C96.9181 176.29 88.575 216.809 88.998 230.725C88.998 230.725 100.336 227.545 108.249 230.725C108.249 230.725 94.7829 229.224 88.9844 235.4C83.1858 241.577 101.032 257.806 136.737 254.51C136.737 254.51 143.859 256.741 147.475 255.431C147.475 255.431 146.506 261.887 136.676 261.717C126.886 261.328 98.2484 261.089 83.4109 248.231C83.4178 248.238 81.5486 210.988 96.9181 176.29Z" fill="white"/>
<path d="M113.979 184.057C113.979 184.057 116.442 201.999 120.419 205.753C124.396 209.507 142.931 208.278 150.271 212.325C150.271 212.325 157.182 200.348 169.679 192.854L152.734 219.546L138.088 216.086L120.208 213.356L118.707 216.809H116.019C116.019 216.809 115.719 197.659 113.979 184.057Z" fill="#D0005E"/>
<path opacity="0.5" d="M113.979 184.057C113.979 184.057 116.442 201.999 120.419 205.753C124.396 209.507 142.931 208.278 150.271 212.325C150.271 212.325 157.182 200.348 169.679 192.854L152.734 219.546L138.088 216.086L120.208 213.356L118.707 216.809H116.019C116.019 216.809 115.719 197.659 113.979 184.057Z" fill="white"/>
<path d="M184.033 147.51C191.693 152.021 192.553 157.106 194.129 160.737C190.145 161.528 186.024 162.374 182.736 164.756C178.643 167.732 176.426 172.659 174.707 177.444C173.081 181.971 171.714 186.588 170.614 191.271C174.317 184.579 179.58 178.88 185.956 174.659C189.633 172.23 194.177 170.271 198.372 171.643C194.852 173.137 190.868 175.157 190.124 178.911C189.978 179.534 190.004 180.185 190.199 180.795C190.827 182.562 193.024 183.04 194.688 183.9C197.935 185.572 199.627 189.36 199.77 193.032C199.914 196.703 198.788 200.252 197.676 203.726C196.698 206.77 195.721 209.814 194.743 212.858C193.494 216.748 192.226 220.693 189.967 224.105C187.709 227.517 184.319 230.377 180.287 231.046C178.602 231.371 176.857 231.173 175.287 230.479C174.097 229.832 172.99 229.041 171.992 228.125C167.155 224.217 161.343 221.706 155.183 220.863C163.11 226.105 166.862 235.625 170.15 244.545C168.64 241.901 166.465 239.699 163.84 238.157C163.167 237.689 162.368 237.436 161.548 237.434C159.392 237.605 158.71 240.355 157.414 242.075C155.858 244.122 153.014 244.852 150.462 244.525C147.911 244.197 145.564 243.003 143.272 241.795L114.273 226.835L112.226 232.977C112.226 232.977 135.325 251.404 170.716 257.922C170.716 257.922 193.706 239.748 201.851 223.634C209.996 207.521 222.651 174.495 222.651 174.495C222.651 174.495 218.019 165.719 210.078 161.139C210.078 161.139 204.15 158.334 202.902 154.867C201.653 151.4 190.513 145.415 190.513 145.415C190.513 145.415 191.959 149.114 184.033 147.51Z" fill="#D0005E"/>
<path opacity="0.6" d="M184.033 147.51C191.693 152.021 192.553 157.106 194.129 160.737C190.145 161.528 186.024 162.374 182.736 164.756C178.643 167.732 176.426 172.659 174.707 177.444C173.081 181.971 171.714 186.588 170.614 191.271C174.317 184.579 179.58 178.88 185.956 174.659C189.633 172.23 194.177 170.271 198.372 171.643C194.852 173.137 190.868 175.157 190.124 178.911C189.978 179.534 190.004 180.185 190.199 180.795C190.827 182.562 193.024 183.04 194.688 183.9C197.935 185.572 199.627 189.36 199.77 193.032C199.914 196.703 198.788 200.252 197.676 203.726C196.698 206.77 195.721 209.814 194.743 212.858C193.494 216.748 192.226 220.693 189.967 224.105C187.709 227.517 184.319 230.377 180.287 231.046C178.602 231.371 176.857 231.173 175.287 230.479C174.097 229.832 172.99 229.041 171.992 228.125C167.155 224.217 161.343 221.706 155.183 220.863C163.11 226.105 166.862 235.625 170.15 244.545C168.64 241.901 166.465 239.699 163.84 238.157C163.167 237.689 162.368 237.436 161.548 237.434C159.392 237.605 158.71 240.355 157.414 242.075C155.858 244.122 153.014 244.852 150.462 244.525C147.911 244.197 145.564 243.003 143.272 241.795L114.273 226.835L112.226 232.977C112.226 232.977 135.325 251.404 170.716 257.922C170.716 257.922 193.706 239.748 201.851 223.634C209.996 207.521 222.651 174.495 222.651 174.495C222.651 174.495 218.019 165.719 210.078 161.139C210.078 161.139 204.15 158.334 202.902 154.867C201.653 151.4 190.513 145.415 190.513 145.415C190.513 145.415 191.959 149.114 184.033 147.51Z" fill="white"/>
<path d="M181.597 84.6876C181.597 84.6876 183.146 66.6223 175.362 64.8956C167.578 63.1689 163.206 56.0233 163.206 56.0233L135.591 63.7354L131.307 80.347L134.035 88.7552C134.035 88.7552 134.609 96.5559 134.718 100.412C134.827 104.268 134.718 107.237 137.637 111.919C140.557 116.6 143.272 121.248 149.582 125.295V135.935C149.582 135.935 145.68 147.326 147.836 154.314C147.836 154.314 149.125 155.679 152.686 153.632C156.247 151.584 171.48 141.402 176.795 130.769L178.445 103.736C178.445 103.736 182.832 104.418 184.722 100.419C187.498 96.5082 187.389 91.9492 186.311 88.2365C185.233 84.5238 180.594 86.9261 180.594 86.9261L181.597 84.6876Z" fill="#999999"/>
<path d="M149.883 111.175C150.663 110.324 151.626 109.66 152.698 109.233C153.77 108.805 154.925 108.624 156.077 108.704C156.077 108.704 159.399 103.456 162.899 104.418C162.899 104.418 163.976 109.98 159.781 112.171C154.324 115.017 149.883 111.175 149.883 111.175Z" fill="#737373"/>
<path d="M139.623 61.4354C139.623 61.4354 133.012 70.1234 133.394 79.18C133.776 88.2365 135.093 94.6587 134.711 101.647C134.329 108.636 141.696 120.34 149.248 125.056C154.89 128.585 161.964 127.984 167.456 124.374C173.595 120.279 176.972 112.922 178.207 105.858C178.33 105.176 178.425 104.493 178.493 103.756" stroke="#263238" stroke-linecap="round" stroke-linejoin="round"/>
<path d="M149.248 125.063C149.248 125.063 150.319 134.85 149.248 138.201C148.068 141.88 146.642 150.445 147.884 154.314C149.125 158.184 172.354 141.92 176.842 130.762C176.842 130.762 177.463 109.079 179.012 103.661" stroke="#263238" stroke-linecap="round" stroke-linejoin="round"/>
<path d="M148.607 110.936C148.607 110.936 159.174 113.925 163.499 103.012" stroke="#263238" stroke-linecap="round" stroke-linejoin="round"/>
<path d="M149.46 127.418C149.46 127.418 151.711 134.4 156.568 134.816C161.425 135.232 173.575 125.493 177.716 114.021V108.281C177.716 108.281 174.305 123.296 164.317 126.026C154.33 128.755 149.657 125.282 149.657 125.282L149.46 127.418Z" fill="#263238"/>
<path d="M162.892 104.418C158.198 104.091 156.07 108.704 156.07 108.704C154.913 108.563 153.74 108.715 152.657 109.147C151.575 109.579 150.618 110.276 149.876 111.175C151.032 112.212 152.454 112.909 153.982 113.186C155.51 113.463 157.086 113.31 158.533 112.744C163.867 110.888 162.892 104.418 162.892 104.418Z" stroke="#263238" stroke-linecap="round" stroke-linejoin="round"/>
<path d="M151.124 83.8345C151.182 85.9997 151.087 88.1664 150.838 90.3181C150.585 92.2495 149.692 94.099 148.948 95.9144C148.266 97.566 147.127 100.105 148.075 101.845C149.153 103.818 152.734 101.845 152.734 101.845" stroke="#263238" stroke-linecap="round" stroke-linejoin="round"/>
<path d="M154.938 101.436C156.145 101.599 157.857 101.436 158.198 99.3405" stroke="#263238" stroke-linecap="round" stroke-linejoin="round"/>
<path d="M158.84 81.2274C160.007 80.1134 161.558 79.4919 163.172 79.4919C164.785 79.4919 166.336 80.1134 167.503 81.2274" stroke="#263238" stroke-width="2" stroke-linecap="round" stroke-linejoin="round"/>
<path d="M145.073 82.9336C145.073 82.9336 141.874 78.8387 137.685 82.9336" stroke="#263238" stroke-width="2" stroke-linecap="round" stroke-linejoin="round"/>
<path d="M175.983 93.2868C175.983 93.2868 179.633 84.5169 184.394 86.4005C187.675 87.7041 187.873 93.3687 186.134 97.3202C184.394 101.272 183.521 105.298 177.722 103.046" stroke="#263238" stroke-linecap="round" stroke-linejoin="round"/>
<path d="M176.631 91.9423C176.631 91.9423 173.124 90.7002 172.476 85.0015C171.828 79.3027 175.321 73.5972 174.025 69.5023C172.729 65.4074 162.517 67.4548 160.19 60.3161C160.19 60.3161 152.523 66.0353 137.678 64.8068C137.678 64.8068 134.547 70.1438 134.001 73.4061C133.27 78.5068 133.289 83.687 134.056 88.7824C134.056 88.9599 134.117 89.1305 134.151 89.3079C135.216 94.8633 129.915 81.746 130.058 76.1428C130.202 70.5397 126.825 63.4214 131.225 58.1185C135.625 52.8156 151.759 49.7103 154.937 47.2192C158.116 44.7282 164.297 51.3619 171.439 53.8052C178.582 56.2485 184.503 59.1627 183.603 69.2975C182.702 79.4324 183.65 80.7905 183.691 86.1276C183.691 86.1412 180.39 84.8991 176.631 91.9423Z" fill="#263238"/>
<path d="M163.185 88.6118C163.185 89.9767 162.66 91.1097 162.005 91.1097C161.35 91.1097 160.832 89.9904 160.832 88.6118C160.832 87.2332 161.357 86.1207 162.005 86.1207C162.653 86.1207 163.185 87.2468 163.185 88.6118Z" fill="#263238"/>
<path d="M145.073 88.6118C145.073 89.9767 144.548 91.1097 143.9 91.1097C143.252 91.1097 142.726 89.9904 142.726 88.6118C142.726 87.2332 143.252 86.1207 143.9 86.1207C144.548 86.1207 145.073 87.2468 145.073 88.6118Z" fill="#263238"/>
<path d="M158.84 91.9424C158.84 91.9424 161.275 94.529 164.359 94.8975" stroke="#263238" stroke-linecap="round" stroke-linejoin="round"/>
<path d="M142.249 94.8975C142.249 94.8975 146.703 94.5836 147.706 91.9424" stroke="#263238" stroke-linecap="round" stroke-linejoin="round"/>
<path d="M152.604 155.973C155.92 153.864 160.306 154.656 163.935 156.15C165.927 156.976 167.824 158.013 169.809 158.88C170.79 159.314 171.803 159.675 172.838 159.959C175.328 160.607 174.434 157.515 174.291 156.13C174.086 154.144 173.943 152.151 173.704 150.179C173.606 149.77 173.654 149.34 173.841 148.964C174.085 148.66 174.428 148.45 174.809 148.37C179.182 147.005 183.896 147.606 188.453 147.687C188.867 147.736 189.286 147.658 189.654 147.462C190.336 147.019 190.261 146.015 190.077 145.224C188.501 138.481 182.941 131.772 176.897 128.401" stroke="#263238" stroke-linecap="round" stroke-linejoin="round"/>
<path d="M149.63 129.492C146.622 130.748 143.532 132.052 140.939 133.976C139.999 134.662 139.132 135.445 138.354 136.31C137.727 136.907 137.332 137.708 137.242 138.569C137.259 138.97 137.365 139.362 137.552 139.716C137.74 140.07 138.005 140.378 138.326 140.617C138.784 140.994 139.289 141.31 139.827 141.559C141.083 142.152 142.556 142.733 143.088 143.995C143.217 144.26 143.265 144.557 143.225 144.848C143.157 145.104 143.025 145.339 142.843 145.531C141.806 146.793 139.977 147.769 140.114 149.4C140.202 150.663 141.478 151.448 142.611 152.008C143.743 152.567 145.066 153.147 145.455 154.355" stroke="#263238" stroke-linecap="round" stroke-linejoin="round"/>
<path d="M131.818 65.4962C132.262 62.7663 135.113 61.0055 137.856 60.5618C140.598 60.1182 143.415 60.5618 146.178 60.323C148.489 60.0946 150.724 59.3725 152.731 58.2057C154.739 57.0389 156.473 55.4545 157.816 53.5596" stroke="white" stroke-linecap="round" stroke-linejoin="round"/>
<path d="M134.922 57.825C139.875 54.8972 146.833 57.9411 151.663 54.8153C153.03 53.8198 154.22 52.6017 155.183 51.2118" stroke="white" stroke-linecap="round" stroke-linejoin="round"/>
<path d="M198.099 169.827C180.362 173.369 173.745 186.425 173.745 186.425L152.734 219.532" stroke="#263238" stroke-linecap="round" stroke-linejoin="round"/>
<path d="M183.105 166.251C184.576 164.887 186.243 163.751 188.051 162.88" stroke="#263238" stroke-linecap="round" stroke-linejoin="round"/>
<path d="M170.703 191.244C170.703 191.244 172.94 179.286 179.367 170.476" stroke="#263238" stroke-linecap="round" stroke-linejoin="round"/>
<path d="M116.019 216.755C116.019 216.755 115.098 180.126 111.926 174.53" stroke="#263238" stroke-linecap="round" stroke-linejoin="round"/>
<path d="M190.104 145.21C190.104 145.21 200.337 151.352 204.88 157.126C209.423 162.9 220.161 166.736 222.617 174.53C222.617 174.53 208.475 219.109 193.658 235.223C178.841 251.336 170.682 257.949 170.682 257.949C170.682 257.949 135.038 251.752 111.919 232.329L120.187 213.322C120.187 213.322 143.497 216.27 152.714 219.546C161.93 222.822 170.682 242.662 170.682 242.662" stroke="#263238" stroke-linecap="round" stroke-linejoin="round"/>
<path d="M152.734 219.546C152.734 219.546 169.052 222.72 174.352 230.152" stroke="#263238" stroke-linecap="round" stroke-linejoin="round"/>
<path d="M199.689 227.19L188.051 278.41H116.797L114.368 260.509" stroke="#263238" stroke-linecap="round" stroke-linejoin="round"/>
<path d="M147.481 255.438C143.545 263.505 138.354 261.724 138.354 261.724C98.2074 263.245 83.4177 248.238 83.4177 248.238C83.4177 248.238 81.3712 227.128 89.264 198.642C97.1569 170.155 111.94 145.21 111.94 145.21C118.495 140.849 133.121 137.443 137.249 136.543L138.354 136.311" stroke="#263238" stroke-linecap="round" stroke-linejoin="round"/>
<path d="M138.374 261.723C138.374 261.723 136.252 261.375 136.791 247.303" stroke="#263238" stroke-linecap="round" stroke-linejoin="round"/>
<path d="M113.024 233.23C113.024 233.23 102.996 229.695 90.5737 238.294" stroke="#263238" stroke-linecap="round" stroke-linejoin="round"/>
<path d="M92.825 230.152C92.825 230.152 105.964 226.241 111.926 232.506" stroke="#263238" stroke-linecap="round" stroke-linejoin="round"/>
<path d="M110.507 232.151L112.213 233.005L118.707 216.775C118.707 216.775 111.981 215.676 101.325 228.951C104.652 228.989 107.876 230.113 110.507 232.151Z" fill="#999999" stroke="#263238" stroke-miterlimit="10"/>
<path d="M136.771 247.303V254.516C136.771 254.516 145.96 257.246 152.761 253.322L136.771 247.303Z" fill="#999999" stroke="#263238" stroke-miterlimit="10"/>
<path d="M186.577 147.612C186.584 147.746 186.57 147.879 186.536 148.008C186.25 149.134 179.244 175.594 156.82 187.367C156.625 187.472 156.407 187.525 156.186 187.524C155.881 187.524 155.585 187.421 155.345 187.233C155.105 187.045 154.935 186.782 154.862 186.486C154.789 186.19 154.817 185.878 154.942 185.599C155.067 185.321 155.282 185.093 155.552 184.951C176.017 174.216 183.228 149.749 183.855 147.496L186.577 147.612Z" fill="#263238"/>
<path d="M138.326 140.596C134.782 148.697 132.869 157.417 132.698 166.258C132.698 166.974 132.698 167.705 132.698 168.449C132.698 168.633 132.698 168.817 132.698 169.001C132.495 169.008 132.292 169.029 132.091 169.063C131.353 169.179 130.637 169.41 129.97 169.745C129.97 168.742 129.97 167.766 129.97 166.804C130.263 151.489 134.834 141.067 137.269 136.563L138.374 136.331C137.747 136.928 137.353 137.729 137.262 138.59C137.282 138.982 137.388 139.365 137.572 139.711C137.756 140.058 138.013 140.36 138.326 140.596Z" fill="#263238"/>
<path d="M165.191 181.211C166.787 183.429 165.477 187.115 162.257 189.442C159.038 191.769 155.135 191.851 153.532 189.633C151.929 187.415 153.239 183.729 156.459 181.402C159.679 179.075 163.615 178.993 165.191 181.211Z" fill="white" stroke="#263238" stroke-linecap="round" stroke-linejoin="round"/>
<path d="M161.221 179.894C162.353 181.463 161.425 184.071 159.174 185.715C156.923 187.36 154.133 187.422 153.034 185.852C151.936 184.282 152.83 181.675 155.081 180.03C157.332 178.385 160.088 178.331 161.221 179.894Z" fill="white" stroke="#263238" stroke-linecap="round" stroke-linejoin="round"/>
<path d="M143.19 207.596C142.9 207.789 142.546 207.864 142.202 207.804C141.859 207.745 141.551 207.556 141.342 207.276C141.133 206.996 141.039 206.647 141.08 206.3C141.12 205.954 141.292 205.636 141.56 205.412C141.676 205.316 146.253 201.419 144.248 188.295C144.077 187.183 143.859 185.995 143.565 184.746C142.699 180.767 141.362 175.731 138.626 172.032C137.976 171.056 137.085 170.264 136.039 169.734C134.993 169.203 133.829 168.951 132.657 169.001C132.454 169.008 132.251 169.029 132.05 169.063C131.312 169.179 130.596 169.41 129.929 169.745C127.891 170.798 126.344 172.605 125.617 174.782L125.372 175.464C123.825 179.65 122.56 183.934 121.586 188.288C120.494 193.646 120.126 199.263 122.063 203.187C122.582 204.264 123.322 205.219 124.234 205.992C125.146 206.764 126.21 207.336 127.357 207.671C127.665 207.772 127.927 207.98 128.096 208.257C128.264 208.534 128.329 208.862 128.278 209.182C128.227 209.502 128.064 209.794 127.818 210.005C127.571 210.216 127.258 210.332 126.934 210.332C126.79 210.332 126.647 210.309 126.511 210.264C125.019 209.816 123.636 209.063 122.45 208.053C121.264 207.042 120.301 205.797 119.621 204.395C117.438 199.979 117.724 193.967 118.83 188.288C119.809 183.619 121.136 179.029 122.8 174.557L123.045 173.874C123.582 172.25 124.48 170.769 125.673 169.543C126.865 168.317 128.32 167.378 129.929 166.797C130.485 166.604 131.059 166.462 131.641 166.374C131.989 166.326 132.323 166.292 132.678 166.271C134.275 166.227 135.857 166.585 137.28 167.311C138.703 168.037 139.921 169.109 140.823 170.428C143.866 174.523 145.312 179.935 146.233 184.18C146.553 185.64 146.799 187.012 146.983 188.309C149.139 203.023 143.456 207.405 143.19 207.596Z" fill="#263238" stroke="#263238" stroke-miterlimit="10"/>
<path d="M125.979 210.094C125.979 210.094 130.925 212.141 132.18 210.094C133.435 208.046 132.419 207.084 130.706 206.92C129 206.833 127.29 206.833 125.583 206.92L125.979 210.094Z" fill="#263238" stroke="#263238" stroke-miterlimit="10"/>
<path d="M128.251 209.411C128.161 209.685 127.988 209.923 127.755 210.092C127.522 210.262 127.242 210.353 126.954 210.353C126.811 210.353 126.668 210.33 126.532 210.285C125.04 209.837 123.657 209.084 122.471 208.073C121.285 207.063 120.322 205.817 119.641 204.415C117.459 200 117.745 193.987 118.85 188.309H121.579C120.487 193.666 120.119 199.283 122.056 203.207C122.576 204.284 123.315 205.24 124.227 206.012C125.139 206.785 126.203 207.357 127.35 207.691C127.523 207.744 127.683 207.831 127.822 207.946C127.961 208.061 128.076 208.203 128.159 208.363C128.243 208.523 128.294 208.698 128.31 208.878C128.326 209.058 128.305 209.239 128.251 209.411Z" fill="white" stroke="#263238" stroke-linecap="round" stroke-linejoin="round"/>
<path d="M138.633 206.115C138.428 206.359 138.276 206.644 138.188 206.951C138.1 207.258 138.077 207.58 138.122 207.896C138.258 208.364 138.554 208.768 138.958 209.04C139.361 209.312 139.848 209.434 140.332 209.384C141.301 209.255 142.187 208.768 142.815 208.019C143.497 207.255 145.864 202.252 143.675 203.112C142.085 203.712 139.698 204.729 138.633 206.115Z" fill="#263238" stroke="#263238" stroke-miterlimit="10"/>
<path d="M143.19 207.596C142.9 207.789 142.546 207.864 142.203 207.804C141.859 207.745 141.551 207.556 141.342 207.276C141.133 206.996 141.039 206.647 141.08 206.3C141.121 205.954 141.292 205.636 141.56 205.412C141.676 205.316 146.253 201.419 144.248 188.295H146.977C149.139 203.023 143.456 207.405 143.19 207.596Z" fill="white" stroke="#263238" stroke-linecap="round" stroke-linejoin="round"/>
<path opacity="0.2" d="M155.429 86.967C155.429 86.967 164.017 82.5036 171.91 86.967C171.91 86.967 172.04 93.553 169.059 96.2624C168.001 97.2247 163.158 97.3885 161.323 97.2247C153.873 96.5491 155.429 86.967 155.429 86.967Z" fill="white"/>
<path opacity="0.2" d="M150.039 86.967C150.039 86.967 141.451 82.5036 133.565 86.967C133.565 86.967 133.435 93.553 136.409 96.2624C137.467 97.2247 142.317 97.3885 144.145 97.2247C151.595 96.5491 150.039 86.967 150.039 86.967Z" fill="white"/>
<path d="M155.429 86.967C155.429 86.967 164.017 82.5036 171.91 86.967C171.91 86.967 172.04 93.553 169.059 96.2624C168.001 97.2247 163.158 97.3885 161.323 97.2247C153.873 96.5491 155.429 86.967 155.429 86.967Z" stroke="#263238" stroke-miterlimit="10"/>
<path d="M150.039 86.967C150.039 86.967 141.451 82.5036 133.565 86.967C133.565 86.967 133.435 93.553 136.409 96.2624C137.467 97.2247 142.317 97.3885 144.145 97.2247C151.595 96.5491 150.039 86.967 150.039 86.967Z" stroke="#263238" stroke-miterlimit="10"/>
<path d="M150.04 86.9675C150.04 86.9675 151.963 85.5536 155.429 86.9675" stroke="#263238" stroke-miterlimit="10"/>
<path d="M171.91 86.967L175.498 88.6323" stroke="#263238" stroke-miterlimit="10"/>
<path d="M34.5599 296.578L59.8074 272.718H260.191L275.363 296.578H34.5599Z" fill="white" stroke="#263238" stroke-linecap="round" stroke-linejoin="round"/>
<path d="M275.363 296.578H34.5598V303H275.363V296.578Z" fill="#263238" stroke="#263238" stroke-linecap="round" stroke-linejoin="round"/>
<path d="M59.8075 290.681V285.733H99.374V290.681H91.7404H59.8075Z" fill="white" stroke="#263238" stroke-miterlimit="10"/>
<path d="M59.8075 285.733L83.179 270.05L114.368 270.787L99.374 285.733H59.8075Z" fill="white" stroke="#263238" stroke-linecap="round" stroke-linejoin="round"/>
<path d="M99.374 290.681L114.368 275.653V270.787L99.374 285.733V290.681Z" fill="white" stroke="#263238" stroke-linecap="round" stroke-linejoin="round"/>
<path d="M98.303 284.484C98.303 284.484 95.1445 285.112 95.1445 287.849C95.1445 290.586 97.8732 291.391 97.8732 291.391" stroke="#263238" stroke-width="2" stroke-linecap="round" stroke-linejoin="round"/>
<path d="M95.1445 284.484C95.1445 284.484 91.986 285.112 91.986 287.849C91.986 290.586 94.7147 291.391 94.7147 291.391" stroke="#263238" stroke-width="2" stroke-linecap="round" stroke-linejoin="round"/>
<path d="M91.9862 284.484C91.9862 284.484 88.8277 285.112 88.8277 287.849C88.8277 290.586 91.5564 291.391 91.5564 291.391" stroke="#263238" stroke-width="2" stroke-linecap="round" stroke-linejoin="round"/>
<path d="M88.8276 284.484C88.8276 284.484 85.6691 285.112 85.6691 287.849C85.6691 290.586 88.3978 291.391 88.3978 291.391" stroke="#263238" stroke-width="2" stroke-linecap="round" stroke-linejoin="round"/>
<path d="M85.6691 284.484C85.6691 284.484 82.5106 285.112 82.5106 287.849C82.5106 290.586 85.2393 291.391 85.2393 291.391" stroke="#263238" stroke-width="2" stroke-linecap="round" stroke-linejoin="round"/>
<path d="M82.5106 284.484C82.5106 284.484 79.3521 285.112 79.3521 287.849C79.3521 290.586 82.0808 291.391 82.0808 291.391" stroke="#263238" stroke-width="2" stroke-linecap="round" stroke-linejoin="round"/>
<path d="M79.3519 284.484C79.3519 284.484 76.1934 285.112 76.1934 287.849C76.1934 290.586 78.9221 291.391 78.9221 291.391" stroke="#263238" stroke-width="2" stroke-linecap="round" stroke-linejoin="round"/>
<path d="M76.1935 284.484C76.1935 284.484 73.035 285.112 73.035 287.849C73.035 290.586 75.7637 291.391 75.7637 291.391" stroke="#263238" stroke-width="2" stroke-linecap="round" stroke-linejoin="round"/>
<path d="M72.6462 284.484C72.6462 284.484 69.4877 285.112 69.4877 287.849C69.4877 290.586 72.2164 291.391 72.2164 291.391" stroke="#263238" stroke-width="2" stroke-linecap="round" stroke-linejoin="round"/>
<path d="M69.0919 284.484C69.0919 284.484 65.9334 285.112 65.9334 287.849C65.9334 290.586 68.6621 291.391 68.6621 291.391" stroke="#263238" stroke-width="2" stroke-linecap="round" stroke-linejoin="round"/>
<path d="M65.1422 284.484C65.1422 284.484 61.9837 285.112 61.9837 287.849C61.9837 290.586 64.7124 291.391 64.7124 291.391" stroke="#263238" stroke-width="2" stroke-linecap="round" stroke-linejoin="round"/>
<path d="M85.1641 273.892C82.9852 275.095 81.2582 276.976 80.2455 279.25C83.1175 278.342 85.3892 276.295 87.5654 274.247L85.205 280.103C86.2916 280.014 87.3421 279.671 88.2713 279.101C89.2005 278.531 89.9823 277.749 90.5533 276.82C90.3663 276.901 90.1985 277.02 90.0608 277.17C89.923 277.32 89.8186 277.498 89.7542 277.691C89.6898 277.884 89.6669 278.089 89.6871 278.292C89.7072 278.494 89.7699 278.691 89.8711 278.867C91.8494 278.581 93.1115 276.67 94.1075 274.936C94.2904 275.901 94.3614 276.883 94.3189 277.864C95.9733 278.101 97.6609 277.887 99.2034 277.243" stroke="#263238" stroke-width="0.75" stroke-linecap="round" stroke-linejoin="round"/>
<path d="M258.854 248.818H190.083V286.593H258.854V248.818Z" fill="white" stroke="#263238" stroke-linecap="round" stroke-linejoin="round"/>
<path d="M189.818 286.586L178.759 276.069V238.294L189.818 248.818V286.586Z" fill="white" stroke="#263238" stroke-linecap="round" stroke-linejoin="round"/>
<path d="M258.854 248.818L247.796 238.294H179.032L190.083 248.818H258.854Z" fill="white" stroke="#263238" stroke-linecap="round" stroke-linejoin="round"/>
<path d="M233.566 262.986H227.487V256.625H218.919V262.986H212.288V271.558H218.919V277.912H227.487V271.558H233.566V262.986Z" fill="#D0005E" stroke="#263238" stroke-miterlimit="10"/>
<path d="M223.872 248.818L212.814 238.294" stroke="#263238" stroke-linecap="round" stroke-linejoin="round"/>
<path d="M78.5104 88.2669C86.5319 80.2418 86.5319 67.2306 78.5104 59.2055C70.4888 51.1804 57.4833 51.1804 49.4617 59.2055C41.4402 67.2306 41.4402 80.2418 49.4617 88.2669C57.4833 96.292 70.4888 96.292 78.5104 88.2669Z" fill="white" stroke="#263238" stroke-linecap="round" stroke-linejoin="round"/>
<path d="M81.0709 70.5875C81.0707 71.9631 80.6395 73.304 79.838 74.4217C79.0365 75.5394 77.905 76.3777 76.6026 76.8186L67.4273 79.9102L56.26 83.6844C54.6149 84.2254 52.8227 84.0941 51.274 83.3189C49.7254 82.5437 48.5457 81.1875 47.9921 79.546C47.4386 77.9044 47.556 76.1105 48.3189 74.5552C49.0817 72.9998 50.428 71.8092 52.0646 71.2427L62.2086 67.8303L72.4004 64.4179C73.3864 64.0861 74.437 63.9933 75.4659 64.1472C76.4947 64.301 77.4724 64.6971 78.3183 65.3028C79.1642 65.9086 79.8542 66.7066 80.3316 67.6313C80.809 68.556 81.06 69.5809 81.0641 70.6216L81.0709 70.5875Z" fill="white"/>
<path d="M81.071 70.5875C81.0709 71.9631 80.6397 73.304 79.8382 74.4217C79.0367 75.5394 77.9052 76.3777 76.6028 76.8186L67.4274 79.9102C67.1828 75.388 65.3321 71.1017 62.2087 67.8235L72.4005 64.4111C73.3865 64.0793 74.4372 63.9865 75.466 64.1403C76.4949 64.2942 77.4725 64.6903 78.3184 65.296C79.1644 65.9018 79.8544 66.6998 80.3318 67.6245C80.8091 68.5492 81.0602 69.5741 81.0642 70.6148L81.071 70.5875Z" fill="#D0005E"/>
<path d="M81.0709 70.5875C81.0707 71.9631 80.6395 73.304 79.838 74.4217C79.0365 75.5394 77.905 76.3777 76.6026 76.8186L67.4273 79.9102L56.26 83.6844C54.6149 84.2254 52.8227 84.0941 51.274 83.3189C49.7254 82.5437 48.5457 81.1875 47.9921 79.546C47.4386 77.9044 47.556 76.1105 48.3189 74.5552C49.0817 72.9998 50.428 71.8092 52.0646 71.2427L62.2086 67.8303L72.4004 64.4179C73.3864 64.0861 74.437 63.9933 75.4659 64.1472C76.4947 64.301 77.4724 64.6971 78.3183 65.3028C79.1642 65.9086 79.8542 66.7066 80.3316 67.6313C80.809 68.556 81.06 69.5809 81.0641 70.6216L81.0709 70.5875Z" stroke="#263238" stroke-linecap="round" stroke-linejoin="round"/>
<path d="M67.4274 79.9102C67.2186 75.3796 65.3628 71.0813 62.2087 67.8235" stroke="#263238" stroke-linecap="round" stroke-linejoin="round"/>
<path d="M78.8744 68.1373C79.3051 68.8632 79.5226 69.6958 79.502 70.5397" stroke="white" stroke-linecap="round" stroke-linejoin="round"/>
<path d="M64.801 68.8199L72.9872 66.09C73.7214 65.838 74.5024 65.7521 75.2738 65.8382C76.0452 65.9244 76.788 66.1805 77.4487 66.5882" stroke="white" stroke-linecap="round" stroke-linejoin="round"/>
<path d="M203.552 45.8582C213.999 41.4347 218.883 29.376 214.462 18.9243C210.04 8.4727 197.987 3.58597 187.54 8.00951C177.093 12.4331 172.208 24.4918 176.63 34.9434C181.051 45.395 193.105 50.2818 203.552 45.8582Z" fill="white" stroke="#263238" stroke-linecap="round" stroke-linejoin="round"/>
<path d="M202.629 35.5352L184.715 29.5362C183.225 29.0352 181.995 27.963 181.296 26.5553C180.596 25.1475 180.484 23.5195 180.983 22.0289C181.484 20.5386 182.556 19.3083 183.963 18.6083C185.37 17.9082 186.997 17.7958 188.487 18.2957L206.401 24.2879C207.89 24.7904 209.118 25.8628 209.818 27.27C210.517 28.6773 210.631 30.3045 210.133 31.7952C209.632 33.2856 208.561 34.5163 207.154 35.2175C205.747 35.9186 204.12 36.0329 202.629 35.5352Z" fill="#D0005E"/>
<path d="M189.504 29.0584L192.505 21.8855" stroke="#263238" stroke-linecap="round" stroke-linejoin="round"/>
<path d="M199.375 32.3411L202.363 25.1887" stroke="#263238" stroke-linecap="round" stroke-linejoin="round"/>
<path d="M191.98 29.4815C192.315 29.4815 192.587 29.2096 192.587 28.8741C192.587 28.5387 192.315 28.2667 191.98 28.2667C191.645 28.2667 191.373 28.5387 191.373 28.8741C191.373 29.2096 191.645 29.4815 191.98 29.4815Z" fill="#263238"/>
<path d="M197.949 30.6622C197.949 30.7824 197.913 30.8998 197.847 30.9997C197.78 31.0996 197.685 31.1774 197.574 31.2234C197.463 31.2694 197.341 31.2814 197.223 31.258C197.106 31.2345 196.997 31.1767 196.912 31.0917C196.828 31.0068 196.77 30.8985 196.746 30.7807C196.723 30.6629 196.735 30.5408 196.781 30.4298C196.827 30.3188 196.905 30.2239 197.004 30.1572C197.104 30.0904 197.222 30.0548 197.342 30.0548C197.503 30.0548 197.657 30.1188 197.771 30.2327C197.885 30.3466 197.949 30.5011 197.949 30.6622Z" fill="#263238"/>
<path d="M194.334 24.0763C194.669 24.0763 194.941 23.8043 194.941 23.4689C194.941 23.1334 194.669 22.8615 194.334 22.8615C193.998 22.8615 193.726 23.1334 193.726 23.4689C193.726 23.8043 193.998 24.0763 194.334 24.0763Z" fill="#263238"/>
<path d="M200.214 25.2024C200.214 25.3225 200.178 25.4399 200.112 25.5398C200.045 25.6397 199.95 25.7176 199.839 25.7636C199.728 25.8095 199.606 25.8216 199.488 25.7981C199.371 25.7747 199.262 25.7168 199.177 25.6319C199.093 25.5469 199.035 25.4387 199.011 25.3209C198.988 25.2031 199 25.0809 199.046 24.9699C199.092 24.8589 199.17 24.7641 199.269 24.6973C199.369 24.6306 199.487 24.595 199.607 24.595C199.768 24.595 199.922 24.659 200.036 24.7729C200.15 24.8868 200.214 25.0413 200.214 25.2024Z" fill="#263238"/>
<path d="M202.629 35.5352L184.715 29.5362C183.225 29.0352 181.995 27.963 181.296 26.5553C180.596 25.1475 180.484 23.5195 180.983 22.0289C181.484 20.5386 182.556 19.3083 183.963 18.6083C185.37 17.9082 186.997 17.7958 188.487 18.2957L206.401 24.2879C207.89 24.7904 209.118 25.8628 209.818 27.27C210.517 28.6773 210.631 30.3045 210.133 31.7952C209.632 33.2856 208.561 34.5163 207.154 35.2175C205.747 35.9186 204.12 36.0329 202.629 35.5352Z" stroke="#263238" stroke-linecap="round" stroke-linejoin="round"/>
<path d="M118.004 46.3662C129.348 46.3662 138.545 37.1658 138.545 25.8166C138.545 14.4674 129.348 5.26709 118.004 5.26709C106.66 5.26709 97.4638 14.4674 97.4638 25.8166C97.4638 37.1658 106.66 46.3662 118.004 46.3662Z" fill="white" stroke="#263238" stroke-linecap="round" stroke-linejoin="round"/>
<path d="M129.772 26.3422V34.764C129.772 36.9002 128.408 38.6337 126.736 38.6337H109.272C107.594 38.6337 106.237 36.9002 106.237 34.764V26.3422C106.237 24.206 107.601 22.4725 109.272 22.4725H112.144V17.5859H123.741V22.4725H126.716C128.408 22.4725 129.772 24.206 129.772 26.3422Z" fill="white" stroke="#263238" stroke-linecap="round" stroke-linejoin="round"/>
<path d="M129.765 27.3113H106.237V32.5323H129.765V27.3113Z" fill="#D0005E" stroke="#263238" stroke-miterlimit="10"/>
<path d="M113.747 11.8667H122.37C123.344 11.8667 124.277 12.2536 124.965 12.9421C125.654 13.6307 126.04 14.5647 126.04 15.5385V19.3535H110.07V15.5385C110.07 15.0557 110.166 14.5777 110.35 14.1318C110.535 13.6858 110.806 13.2808 111.148 12.9397C111.489 12.5987 111.895 12.3284 112.341 12.1442C112.787 11.9601 113.265 11.8658 113.747 11.8667Z" fill="#D0005E" stroke="#263238" stroke-miterlimit="10"/>
<path d="M112.861 12.0988V19.3535" stroke="#263238" stroke-linecap="round" stroke-linejoin="round"/>
<path d="M116.633 11.8667V19.3535" stroke="#263238" stroke-linecap="round" stroke-linejoin="round"/>
<path d="M120.405 11.8667V19.3535" stroke="#263238" stroke-linecap="round" stroke-linejoin="round"/>
<path d="M124.178 12.2898V19.3535" stroke="#263238" stroke-linecap="round" stroke-linejoin="round"/>
<path d="M65.3797 138.157C67.215 126.957 59.6275 116.39 48.4328 114.554C37.238 112.718 26.6751 120.308 24.8399 131.508C23.0047 142.708 30.5921 153.275 41.7869 155.111C52.9816 156.947 63.5445 149.357 65.3797 138.157Z" fill="white" stroke="#263238" stroke-linecap="round" stroke-linejoin="round"/>
<path d="M55.5295 140.134C57.7667 135.401 54.6906 129.25 48.6587 126.397C42.6268 123.543 35.9233 125.066 33.6861 129.799C31.4488 134.532 34.5249 140.682 40.5568 143.536C46.5887 146.39 53.2922 144.866 55.5295 140.134Z" fill="#D0005E" stroke="#263238" stroke-linecap="round" stroke-linejoin="round"/>
<path d="M56.2755 138.524C58.3742 134.084 55.1858 128.171 49.1539 125.317C43.122 122.464 36.5308 123.749 34.4321 128.189C32.3333 132.629 35.5218 138.542 41.5537 141.396C47.5856 144.249 54.1767 142.964 56.2755 138.524Z" fill="#D0005E" stroke="#263238" stroke-linecap="round" stroke-linejoin="round"/>
<path d="M48.838 127.281L41.3818 137.771" stroke="#263238" stroke-linecap="round" stroke-linejoin="round"/>
<path d="M44.3492 125.582C45.3485 125.717 46.3329 125.946 47.2894 126.265" stroke="white" stroke-linecap="round" stroke-linejoin="round"/>
<path d="M37.7252 135.458C37.7252 135.458 33.9187 131.288 37.6365 127.268C38.4945 126.393 39.6118 125.818 40.8223 125.63" stroke="white" stroke-linecap="round" stroke-linejoin="round"/>
<path d="M281.743 138.169C283.578 126.969 275.991 116.401 264.796 114.565C253.601 112.729 243.038 120.32 241.203 131.52C239.368 142.72 246.955 153.287 258.15 155.123C269.345 156.959 279.908 149.368 281.743 138.169Z" fill="white" stroke="#263238" stroke-linecap="round" stroke-linejoin="round"/>
<path d="M273.262 136.904C273.105 137.129 272.948 137.362 272.784 137.587C269.708 141.852 264.967 145.831 261.453 146.616V146.561C258.042 145.797 253.451 142.009 250.375 137.873C250.204 137.648 250.04 137.416 249.884 137.191C246.923 132.946 245.674 128.489 248.969 126.647C255.668 122.907 261.453 130.926 261.453 130.926C261.453 130.926 267.252 122.968 273.937 126.701C277.143 128.489 276.045 132.762 273.262 136.904Z" fill="#D0005E" stroke="#263238" stroke-miterlimit="10"/>
<path d="M273.262 136.904C273.105 137.13 272.948 137.362 272.784 137.587H271.092L269.155 140.146L267.838 132.557L265.792 137.716H260.955L258.479 141.845L256.569 133.485L254.106 137.846H250.375C250.204 137.621 250.04 137.389 249.883 137.164H253.71L256.842 131.615L258.765 140.044L260.587 137.007H265.362L268.091 130.018L269.551 138.454L270.745 136.877L273.262 136.904Z" fill="white"/>
<path d="M241.697 94.5153C253.042 94.5153 262.238 85.315 262.238 73.9658C262.238 62.6166 253.042 53.4163 241.697 53.4163C230.353 53.4163 221.157 62.6166 221.157 73.9658C221.157 85.315 230.353 94.5153 241.697 94.5153Z" fill="white" stroke="#263238" stroke-linecap="round" stroke-linejoin="round"/>
<path d="M240.155 64.4656C240.353 64.9092 239.119 65.892 237.427 66.6632C235.735 67.4344 234.152 67.7006 233.954 67.2501C233.757 66.7997 234.984 65.8237 236.683 65.0525C238.382 64.2813 239.951 64.0425 240.155 64.4656Z" fill="white" stroke="#263238" stroke-linecap="round" stroke-linejoin="round"/>
<path d="M249.399 83.5273L243.253 86.5029L237.741 75.1464L233.934 67.2979L240.081 64.3154L243.792 71.9729L249.399 83.5273Z" fill="white" stroke="#263238" stroke-linecap="round" stroke-linejoin="round"/>
<path d="M235.073 69.6389L237.741 68.4036L235.073 69.6389Z" fill="#D0005E"/>
<path d="M235.073 69.6389L237.741 68.4036" stroke="#263238" stroke-linecap="round" stroke-linejoin="round"/>
<path d="M236.233 72.1094L238.9 70.8741L236.233 72.1094Z" fill="#D0005E"/>
<path d="M236.233 72.1094L238.9 70.8741" stroke="#263238" stroke-linecap="round" stroke-linejoin="round"/>
<path d="M245.606 85.3632L248.778 89.5264L247.196 84.592L245.606 85.3632Z" fill="white" stroke="#263238" stroke-linecap="round" stroke-linejoin="round"/>
<path d="M249.399 83.5273C247.96 84.9686 246.124 85.9476 244.126 86.3392L243.253 86.503L237.741 75.1464L243.792 71.9729L249.399 83.5273Z" fill="#D0005E" stroke="#263238" stroke-miterlimit="10"/>
<path d="M238.901 77.3032L241.411 76.1429" stroke="#263238" stroke-linecap="round" stroke-linejoin="round"/>
<path d="M240.278 79.9443L242.741 78.8182L240.278 79.9443Z" fill="#D0005E"/>
<path d="M240.278 79.9443L242.741 78.8182" stroke="#263238" stroke-linecap="round" stroke-linejoin="round"/>
<path d="M236.063 66.2605L234.118 61.8858L235.646 61.019L237.741 65.4484L236.063 66.2605Z" fill="white" stroke="#263238" stroke-linecap="round" stroke-linejoin="round"/>
<path d="M239.398 60.4867L238.935 59.463L230.748 63.1279L231.212 64.1517C231.403 64.5885 233.388 64.1107 235.653 63.1006C237.918 62.0906 239.589 60.9167 239.398 60.4867Z" fill="white" stroke="#263238" stroke-linecap="round" stroke-linejoin="round"/>
<path d="M238.935 59.463C238.743 59.0331 236.752 59.504 234.494 60.5141C232.235 61.5241 230.557 62.698 230.748 63.128C230.939 63.5579 232.931 63.087 235.189 62.0701C237.447 61.0532 239.126 59.893 238.935 59.463Z" fill="white" stroke="#263238" stroke-linecap="round" stroke-linejoin="round"/>
</svg>
