<svg width="105" height="32" viewBox="0 0 105 32" fill="none" xmlns="http://www.w3.org/2000/svg">
<path opacity="0.35" d="M99.2827 5.8107V5.14716H93.7581V5.8107H99.2827Z" fill="#D0005E"/>
<path opacity="0.35" d="M99.2827 12.09V11.4265H93.7581V12.09H99.2827Z" fill="#D0005E"/>
<path d="M99.2827 5.81072V4.48451e-08L98.2737 0C95.7802 -1.10774e-07 93.7581 2.05437 93.7581 4.58985V5.81072H99.2827Z" fill="#D0005E"/>
<path d="M99.2827 12.6474V11.4265H93.7581V17.2372H94.7671C97.2622 17.2372 99.2827 15.1816 99.2827 12.6474Z" fill="#D0005E"/>
<path d="M88.0416 5.81067H101.648C103.5 5.81067 105 7.33646 105 9.21711V11.4264H91.3933C89.5416 11.4264 88.0416 9.90068 88.0416 8.02V5.81067Z" fill="#D0005E"/>
<path d="M5.75918 31.6372H0V15.5037H5.40221C6.99667 15.5037 9.66211 15.7213 11.7088 17.729C13.565 19.5431 13.922 21.8651 13.922 23.6067C13.922 25.7353 13.3985 27.6219 11.8516 29.1942C10.5902 30.4762 8.47218 31.6372 5.75918 31.6372ZM4.1171 19.0593V28.0815H4.95004C5.94957 28.0815 7.35364 27.9848 8.42456 26.9205C8.94817 26.4125 9.63834 25.3966 9.63834 23.6067C9.63834 22.107 9.18612 20.8251 8.40079 20.0752C7.42504 19.1561 6.13996 19.0593 5.11663 19.0593H4.1171ZM22.1636 23.7518C21.5449 23.7518 20.8785 24.0421 20.4502 24.4533C19.9742 24.9128 19.7124 25.5901 19.7124 26.2191C19.7124 26.8721 20.0218 27.501 20.4502 27.9364C20.9023 28.396 21.5211 28.6621 22.1636 28.6621C22.7824 28.6621 23.4011 28.396 23.8533 27.9364C24.3292 27.4768 24.591 26.8479 24.591 26.2191C24.591 25.6385 24.3292 24.9371 23.8533 24.4533C23.425 24.0421 22.7586 23.7518 22.1636 23.7518ZM28.5416 26.2191C28.5416 27.6703 28.0656 29.0491 26.8995 30.2101C25.4954 31.613 23.8533 32 22.1399 32C20.593 32 18.8795 31.6855 17.404 30.2101C16.2378 29.0491 15.7619 27.6703 15.7619 26.2191C15.7619 24.284 16.6187 23.0262 17.404 22.2522C18.2845 21.3813 19.8314 20.4623 22.1399 20.4623C24.4959 20.4623 26.0189 21.4056 26.8995 22.2522C27.6848 23.0262 28.5416 24.284 28.5416 26.2191ZM30.7388 31.6372V20.8251H34.5466V22.1796C35.5937 20.7767 36.9977 20.5831 37.9259 20.5831C39.0206 20.5831 40.1867 20.8492 41.0673 21.7442C41.9716 22.6633 42.0668 23.5825 42.0668 24.7677V31.6372H38.2591V26.1707C38.2591 25.5417 38.2829 24.5984 37.7832 24.0663C37.4261 23.6792 36.9502 23.6067 36.5694 23.6067C35.9744 23.6067 35.4747 23.8244 35.1653 24.1146C34.7845 24.4774 34.5466 25.1789 34.5466 25.832V31.6372H30.7388ZM53.4891 17.5838L52.7275 18.2369C51.7517 16.3019 50.0383 16.2535 49.6099 16.2535C47.7299 16.2535 46.6589 17.6322 46.6589 19.2528C46.6589 20.9944 47.8488 21.5749 49.4434 22.3731C51.014 23.1471 51.7994 23.4858 52.6085 24.0663C53.2986 24.55 54.2982 25.3966 54.2982 27.1866C54.2982 29.8957 52.0612 31.9033 49.3481 31.9033C47.3015 31.9033 46.2544 30.9116 45.6594 30.2101C45.0407 29.4844 44.7789 28.8555 44.6361 28.4443L45.5404 28.0089C45.7546 28.6378 46.1591 29.2667 46.3972 29.557C47.1111 30.4762 48.2772 30.9357 49.372 30.9357C51.5138 30.9357 53.2035 29.3393 53.2035 27.2107C53.2035 26.3399 52.8703 25.4209 51.6566 24.671C51.2044 24.4049 50.2762 23.9212 48.9674 23.2681C47.3967 22.494 46.6114 22.0587 46.064 21.1395C45.707 20.5348 45.5642 19.9301 45.5642 19.3012C45.5642 17.4387 46.8017 15.286 49.6337 15.286C51.2282 15.286 52.6799 16.06 53.4891 17.5838ZM65.19 23.4858V21.7684H66.1419V31.6372H65.19V29.8714C64.2143 31.3953 62.6674 31.9033 61.406 31.9033C58.8596 31.9033 56.6702 29.944 56.6702 26.7028C56.6702 23.6551 58.574 21.5507 61.406 21.5507C62.9292 21.5507 64.2619 22.1554 65.19 23.4858ZM61.4537 22.4699C59.526 22.4699 57.6698 23.9453 57.6698 26.6302C57.6698 28.8555 59.0262 30.9841 61.4774 30.9841C63.9049 30.9841 65.2375 28.9039 65.2375 26.6302C65.2375 23.7035 63.1196 22.4699 61.4537 22.4699ZM69.56 21.7684H70.5119V27.7187C70.5119 28.4201 70.5356 29.4603 71.1306 30.1859C71.7256 30.9116 72.6061 30.9841 73.0583 30.9841C73.5104 30.9841 74.391 30.9116 74.9859 30.1859C75.5809 29.4603 75.6047 28.4201 75.6047 27.7187V21.7684H76.5566V27.9848C76.5566 28.783 76.4852 29.8231 75.8189 30.6939C75.0812 31.6614 73.915 31.9033 73.0583 31.9033C72.2016 31.9033 71.0355 31.6614 70.2977 30.6939C69.6314 29.8231 69.56 28.783 69.56 27.9848V21.7684ZM74.3672 16.6405L75.3905 17.2452L72.8917 20.3413L72.1778 19.9543L74.3672 16.6405ZM87.8957 23.4858V14.004H88.8482V31.6372H87.8957V29.8714C86.9203 31.3953 85.3736 31.9033 84.1359 31.9033C81.685 31.9033 79.3761 30.1134 79.3761 26.6544C79.3761 23.0504 81.7801 21.5507 84.1359 21.5507C85.8965 21.5507 87.1343 22.3731 87.8957 23.4858ZM84.1359 22.4699C82.1367 22.4699 80.376 23.8728 80.376 26.6302C80.376 29.5086 82.2317 30.9841 84.1834 30.9841C86.1113 30.9841 87.9433 29.5086 87.9433 26.6302C87.9433 24.3323 86.5392 22.4699 84.1359 22.4699ZM100.952 26.8237H92.6466C92.6466 29.3393 94.4556 30.9841 96.5024 30.9841C98.0729 30.9841 99.2623 30.0408 99.8811 28.7346L100.69 29.2183C100.12 30.331 98.8344 31.9033 96.4303 31.9033C93.4081 31.9033 91.6474 29.6296 91.6474 26.7512C91.6474 23.3164 93.9794 21.5507 96.3589 21.5507C98.977 21.5507 100.952 23.6792 100.952 26.8237ZM92.7179 25.9046H99.9524C99.7147 23.9453 98.2868 22.4699 96.3589 22.4699C94.3843 22.4699 92.9802 23.9937 92.7179 25.9046Z" fill="black"/>
</svg>
